<svg width="1440" height="1024" viewBox="0 0 1440 1024" fill="none" xmlns="http://www.w3.org/2000/svg">
<g id="Garage-sale-animation">
<rect width="1440" height="1024" fill="white"/>
<g id="Sale 1">
<g id="layer1">
<g id="g4892">
<g id="rect3094" filter="url(#filter0_f)">
<path d="M277.813 375.822H188.194C183.186 375.822 179.126 377.876 179.126 380.409V397.053C179.126 399.586 183.186 401.64 188.194 401.64H277.813C282.821 401.64 286.881 399.586 286.881 397.053V380.409C286.881 377.876 282.821 375.822 277.813 375.822Z" fill="#333333"/>
</g>
<g id="path3918" filter="url(#filter1_f)">
<path d="M254.845 392.512C254.845 387.99 247.431 384.325 238.285 384.325C229.14 384.325 221.726 387.99 221.726 392.512" fill="#005500"/>
</g>
<path id="path3890" d="M271.357 349.798C271.665 349.803 271.968 349.82 272.269 349.846C262.595 350.058 251.147 360.989 245.487 376.059C243.226 382.079 242.2 387.936 242.29 393.074H235.16C235.396 387.193 237.45 380.221 241.378 373.19C249.194 359.196 261.812 349.627 271.356 349.798L271.357 349.798Z" fill="#0B280B"/>
<g id="g3069">
<path id="rect2995" d="M238.048 202.003H237.242C232.354 202.003 228.391 205.503 228.391 209.819V385.942C228.391 390.259 232.354 393.758 237.242 393.758H238.048C242.936 393.758 246.899 390.259 246.899 385.942V209.819C246.899 205.503 242.936 202.003 238.048 202.003Z" fill="url(#paint0_linear)"/>
<g id="g3033" opacity="0.1">
<path id="path3025" opacity="0.1" d="M245.367 290.241C245.367 317.149 244.204 338.962 242.768 338.962C241.332 338.962 240.169 317.149 240.169 290.241C240.169 263.334 241.332 241.521 242.768 241.521C244.204 241.521 245.367 263.334 245.367 290.241Z" fill="#D45500"/>
<path id="path3029" opacity="0.1" d="M244.793 290.24C244.793 313.134 243.886 331.692 242.769 331.692C241.651 331.692 240.745 313.134 240.745 290.24C240.745 267.346 241.651 248.788 242.769 248.788C243.886 248.788 244.793 267.346 244.793 290.24Z" fill="#FF6600"/>
<path id="path3027" opacity="0.1" d="M244.419 290.24C244.419 308.899 243.681 324.025 242.769 324.025C241.858 324.025 241.12 308.899 241.12 290.24C241.12 271.581 241.858 256.455 242.769 256.455C243.681 256.455 244.419 271.581 244.419 290.24Z" fill="#552200"/>
<path id="path3031" opacity="0.1" d="M244.019 290.24C244.019 304.376 243.46 315.835 242.77 315.835C242.08 315.835 241.52 304.376 241.52 290.24C241.52 276.104 242.08 264.645 242.77 264.645C243.46 264.645 244.019 276.104 244.019 290.24Z" fill="#FFB380"/>
</g>
<g id="g3039" opacity="0.1">
<path id="path3041" opacity="0.1" d="M234.498 341.568C234.498 368.475 233.334 390.288 231.898 390.288C230.463 390.288 229.299 368.475 229.299 341.568C229.299 314.66 230.463 292.847 231.898 292.847C233.334 292.847 234.498 314.66 234.498 341.568Z" fill="#D45500"/>
<path id="path3043" opacity="0.1" d="M233.923 341.566C233.923 364.46 233.017 383.019 231.899 383.019C230.781 383.019 229.875 364.46 229.875 341.566C229.875 318.673 230.781 300.114 231.899 300.114C233.017 300.114 233.923 318.673 233.923 341.566Z" fill="#FF6600"/>
<path id="path3045" opacity="0.1" d="M233.549 341.566C233.549 360.225 232.811 375.352 231.9 375.352C230.989 375.352 230.25 360.225 230.25 341.566C230.25 322.907 230.989 307.781 231.9 307.781C232.811 307.781 233.549 322.907 233.549 341.566Z" fill="#552200"/>
<path id="path3047" opacity="0.1" d="M233.15 341.566C233.15 355.702 232.59 367.161 231.9 367.161C231.21 367.161 230.65 355.702 230.65 341.566C230.65 327.431 231.21 315.972 231.9 315.972C232.59 315.972 233.15 327.431 233.15 341.566Z" fill="#FFB380"/>
</g>
<g id="g3049" opacity="0.1">
<path id="path3051" opacity="0.1" d="M238.281 252.268C238.281 279.176 237.117 300.989 235.681 300.989C234.246 300.989 233.082 279.176 233.082 252.268C233.082 225.361 234.246 203.548 235.681 203.548C237.117 203.548 238.281 225.361 238.281 252.268Z" fill="#D45500"/>
<path id="path3053" opacity="0.1" d="M237.706 252.267C237.706 275.161 236.799 293.719 235.682 293.719C234.564 293.719 233.658 275.161 233.658 252.267C233.658 229.373 234.564 210.815 235.682 210.815C236.799 210.815 237.706 229.373 237.706 252.267Z" fill="#FF6600"/>
<path id="path3055" opacity="0.1" d="M237.332 252.267C237.332 270.926 236.594 286.052 235.683 286.052C234.772 286.052 234.033 270.926 234.033 252.267C234.033 233.608 234.772 218.481 235.683 218.481C236.594 218.481 237.332 233.608 237.332 252.267Z" fill="#552200"/>
<path id="path3057" opacity="0.1" d="M236.933 252.267C236.933 266.403 236.373 277.862 235.683 277.862C234.993 277.862 234.433 266.403 234.433 252.267C234.433 238.131 234.993 226.672 235.683 226.672C236.373 226.672 236.933 238.131 236.933 252.267Z" fill="#FFB380"/>
</g>
<g id="g3059" opacity="0.1">
<path id="path3061" opacity="0.1" d="M245.367 358.468C245.367 373.046 244.204 384.863 242.768 384.863C241.332 384.863 240.169 373.046 240.169 358.468C240.169 343.891 241.332 332.074 242.768 332.074C244.204 332.074 245.367 343.891 245.367 358.468Z" fill="#D45500"/>
<path id="path3063" opacity="0.1" d="M244.793 358.468C244.793 370.87 243.886 380.925 242.769 380.925C241.651 380.925 240.745 370.87 240.745 358.468C240.745 346.065 241.651 336.011 242.769 336.011C243.886 336.011 244.793 346.065 244.793 358.468Z" fill="#FF6600"/>
<path id="path3065" opacity="0.1" d="M244.419 358.468C244.419 368.576 243.681 376.771 242.769 376.771C241.858 376.771 241.12 368.576 241.12 358.468C241.12 348.359 241.858 340.164 242.769 340.164C243.681 340.164 244.419 348.359 244.419 358.468Z" fill="#552200"/>
<path id="path3067" opacity="0.1" d="M244.019 358.468C244.019 366.126 243.46 372.334 242.77 372.334C242.08 372.334 241.52 366.126 241.52 358.468C241.52 350.81 242.08 344.602 242.77 344.602C243.46 344.602 244.019 350.81 244.019 358.468Z" fill="#FFB380"/>
</g>
</g>
<path id="rect2985" d="M320.397 219.248H161.813C157.639 219.248 154.256 221.82 154.256 224.994V279.188C154.256 282.362 157.639 284.935 161.813 284.935H320.397C324.571 284.935 327.954 282.362 327.954 279.188V224.994C327.954 221.82 324.571 219.248 320.397 219.248Z" fill="url(#paint1_linear)"/>
<path id="path3876" d="M196.416 347.828C196.108 347.833 195.805 347.85 195.504 347.876C205.177 348.088 216.625 359.019 222.286 374.089C224.547 380.109 225.573 385.966 225.483 391.104H232.612C232.377 385.222 230.322 378.251 226.395 371.22C218.578 357.226 205.961 347.657 196.416 347.828L196.416 347.828Z" fill="#0B280B"/>
<path id="path3884" d="M196.707 363.574C196.399 363.578 196.097 363.589 195.795 363.606C205.469 363.747 216.917 370.978 222.578 380.947C224.839 384.929 225.864 388.804 225.775 392.203H232.904C232.669 388.312 230.614 383.7 226.687 379.048C218.87 369.791 206.253 363.462 196.708 363.574L196.707 363.574Z" fill="#005500"/>
<path id="path3886" d="M207.051 365.544C206.743 365.548 206.44 365.559 206.139 365.576C215.813 365.717 227.261 372.948 232.921 382.917C235.182 386.899 236.208 390.774 236.118 394.173H243.248C243.013 390.282 240.958 385.67 237.03 381.019C229.214 371.761 216.597 365.432 207.052 365.544L207.051 365.544Z" fill="#002B00"/>
<path id="path3888" d="M279.694 349.146C280.002 349.151 280.305 349.168 280.606 349.194C270.932 349.406 259.484 360.337 253.824 375.407C251.563 381.427 250.537 387.284 250.627 392.422H243.497C243.733 386.54 245.787 379.569 249.715 372.538C257.531 358.544 270.149 348.975 279.693 349.146L279.694 349.146Z" fill="#005500"/>
<path id="path3892" d="M277.395 369.692C277.703 369.695 278.006 369.705 278.307 369.72C268.634 369.842 257.186 376.135 251.525 384.809C249.264 388.275 248.238 391.646 248.328 394.604H241.199C241.434 391.218 243.489 387.205 247.416 383.157C255.233 375.102 267.85 369.593 277.395 369.692L277.395 369.692Z" fill="#008000"/>
<path id="path3894" d="M201.013 369.04C200.705 369.043 200.402 369.053 200.101 369.068C209.774 369.19 221.222 375.483 226.883 384.157C229.144 387.623 230.17 390.994 230.08 393.952H237.21C236.974 390.566 234.919 386.553 230.992 382.505C223.176 374.45 210.558 368.941 201.014 369.04L201.013 369.04Z" fill="#165016"/>
<path id="path3896" d="M217.942 386.965C217.839 386.966 217.738 386.969 217.638 386.972C220.866 387.005 224.687 388.714 226.577 391.071C227.331 392.012 227.674 392.928 227.644 393.732H230.023C229.945 392.812 229.259 391.722 227.948 390.622C225.339 388.434 221.128 386.938 217.942 386.964L217.942 386.965Z" fill="#1F241C"/>
<path id="path3898" d="M244.668 387.187C244.771 387.188 244.872 387.191 244.972 387.194C241.743 387.227 237.923 388.936 236.033 391.293C235.279 392.234 234.936 393.15 234.966 393.954H232.587C232.665 393.034 233.351 391.944 234.662 390.844C237.271 388.656 241.482 387.159 244.668 387.186L244.668 387.187Z" fill="#008000"/>
<g id="path3900" filter="url(#filter2_f)">
<path d="M254.845 392.197C254.845 396.719 247.431 400.385 238.285 400.385C229.14 400.385 221.726 396.719 221.726 392.197" fill="#005500"/>
</g>
<g id="g3940">
<path id="path3932" d="M232.253 222.388C232.253 223.032 231.567 223.553 230.721 223.553C229.875 223.553 229.189 223.032 229.189 222.388C229.189 221.745 229.875 221.224 230.721 221.224C231.567 221.224 232.253 221.745 232.253 222.388Z" fill="#B3B3B3"/>
<path id="rect3936" d="M230.729 221.42H230.707C230.659 221.42 230.619 221.45 230.619 221.487V223.246C230.619 223.283 230.659 223.313 230.707 223.313H230.729C230.778 223.313 230.817 223.283 230.817 223.246V221.487C230.817 221.45 230.778 221.42 230.729 221.42Z" fill="white"/>
<path id="rect3938" d="M231.963 222.374V222.357C231.963 222.32 231.923 222.291 231.875 222.291H229.561C229.513 222.291 229.474 222.32 229.474 222.357V222.374C229.474 222.411 229.513 222.441 229.561 222.441H231.875C231.923 222.441 231.963 222.411 231.963 222.374Z" fill="white"/>
</g>
<g id="g3945">
<path id="path3947" d="M246.591 222.208C246.591 222.852 245.906 223.373 245.06 223.373C244.214 223.373 243.528 222.852 243.528 222.208C243.528 221.565 244.214 221.043 245.06 221.043C245.906 221.043 246.591 221.565 246.591 222.208Z" fill="#B3B3B3"/>
<path id="rect3949" d="M245.068 221.24H245.046C244.997 221.24 244.958 221.27 244.958 221.307V223.066C244.958 223.103 244.997 223.133 245.046 223.133H245.068C245.116 223.133 245.156 223.103 245.156 223.066V221.307C245.156 221.27 245.116 221.24 245.068 221.24Z" fill="white"/>
<path id="rect3951" d="M246.301 222.194V222.177C246.301 222.14 246.262 222.11 246.214 222.11H243.9C243.852 222.11 243.812 222.14 243.812 222.177V222.194C243.812 222.231 243.852 222.26 243.9 222.26H246.214C246.262 222.26 246.301 222.231 246.301 222.194Z" fill="white"/>
</g>
<g id="g3953">
<path id="path3955" d="M232.052 280.38C232.052 281.023 231.366 281.545 230.52 281.545C229.674 281.545 228.988 281.023 228.988 280.38C228.988 279.737 229.674 279.215 230.52 279.215C231.366 279.215 232.052 279.737 232.052 280.38Z" fill="#B3B3B3"/>
<path id="rect3957" d="M230.528 279.412H230.506C230.458 279.412 230.418 279.441 230.418 279.478V281.238C230.418 281.275 230.458 281.304 230.506 281.304H230.528C230.577 281.304 230.616 281.275 230.616 281.238V279.478C230.616 279.441 230.577 279.412 230.528 279.412Z" fill="white"/>
<path id="rect3959" d="M231.762 280.366V280.349C231.762 280.312 231.722 280.282 231.674 280.282H229.36C229.312 280.282 229.273 280.312 229.273 280.349V280.366C229.273 280.402 229.312 280.432 229.36 280.432H231.674C231.722 280.432 231.762 280.402 231.762 280.366Z" fill="white"/>
</g>
<g id="g3961">
<path id="path3963" d="M246.263 280.13C246.263 280.774 245.577 281.295 244.731 281.295C243.886 281.295 243.2 280.774 243.2 280.13C243.2 279.487 243.886 278.965 244.731 278.965C245.577 278.965 246.263 279.487 246.263 280.13Z" fill="#B3B3B3"/>
<path id="rect3965" d="M244.74 279.162H244.718C244.669 279.162 244.63 279.192 244.63 279.229V280.988C244.63 281.025 244.669 281.055 244.718 281.055H244.74C244.788 281.055 244.827 281.025 244.827 280.988V279.229C244.827 279.192 244.788 279.162 244.74 279.162Z" fill="white"/>
<path id="rect3967" d="M245.973 280.116V280.099C245.973 280.062 245.934 280.032 245.886 280.032H243.572C243.524 280.032 243.484 280.062 243.484 280.099V280.116C243.484 280.153 243.524 280.182 243.572 280.182H245.886C245.934 280.182 245.973 280.153 245.973 280.116Z" fill="white"/>
</g>
<g id="g4880">
<g id="text4342" filter="url(#filter3_f)">
<path id="path4872" d="M202.664 235.296C202.789 235.221 203.144 234.884 203.729 234.284C204.105 233.894 204.606 233.7 205.232 233.699C205.379 233.7 205.963 233.752 206.987 233.857C207.195 234.007 207.352 234.322 207.456 234.801L209.148 242.423C209.231 242.828 209.273 243.068 209.273 243.142C209.273 243.427 209.163 243.615 208.944 243.705C208.725 243.794 208.145 243.839 207.206 243.839C206.141 243.839 205.452 243.742 205.138 243.547C204.825 243.352 204.23 242.543 203.353 241.119C201.495 238.106 199.835 236.6 198.373 236.6C197.329 236.6 196.807 237.124 196.807 238.174C196.807 239.478 198.383 242.041 201.536 245.863C205.149 250.27 207.503 253.458 208.599 255.429C209.696 257.401 210.244 259.608 210.244 262.051C210.244 264.944 209.294 267.162 207.394 268.706C205.493 270.25 203.353 271.022 200.972 271.022C199.469 271.022 198.018 270.714 196.619 270.1C196.076 269.86 195.648 269.74 195.334 269.74C195.063 269.74 194.844 269.882 194.677 270.167C194.342 270.737 193.528 271.022 192.233 271.022C191.732 271.022 191.393 270.965 191.215 270.853C191.038 270.741 190.907 270.444 190.824 269.965L189.258 262.478C189.049 261.519 188.945 261.009 188.945 260.949C188.945 260.514 189.498 260.297 190.605 260.297C192.108 260.297 192.996 260.439 193.267 260.724C193.538 261.009 193.925 261.661 194.426 262.68C196.264 266.322 198.112 268.144 199.97 268.144C200.659 268.144 201.218 267.964 201.646 267.604C202.074 267.244 202.288 266.795 202.288 266.255C202.288 265.311 201.813 264.19 200.863 262.894C199.913 261.597 198.748 260.155 197.37 258.566C194.071 254.759 191.737 251.72 190.37 249.449C189.002 247.178 188.318 244.859 188.318 242.49C188.318 239.822 189.133 237.694 190.761 236.105C192.39 234.516 194.384 233.722 196.744 233.722C198.373 233.722 200.346 234.247 202.664 235.296L202.664 235.296Z" fill="black"/>
<path id="path4874" d="M227.037 262.859H219.206L218.862 264.927C218.862 264.972 218.841 265.04 218.799 265.13C218.632 265.564 218.549 265.954 218.549 266.299C218.549 266.838 219.039 267.295 220.021 267.67C220.543 267.865 220.866 268.067 220.992 268.277C221.117 268.487 221.18 268.832 221.18 269.311C221.18 269.926 221.133 270.297 221.039 270.424C220.945 270.552 220.72 270.615 220.365 270.615H212.096C211.637 270.615 211.407 270.271 211.407 269.581C211.407 268.757 211.772 268.09 212.503 267.58C213.192 267.116 213.589 266.621 213.693 266.096L219.488 239.633C219.593 239.228 219.645 238.876 219.645 238.576C219.645 238.112 219.196 237.699 218.298 237.34C217.88 237.16 217.671 236.763 217.671 236.148C217.671 235.324 217.734 234.814 217.859 234.619C217.985 234.424 218.319 234.327 218.862 234.327H230.827C231.558 234.327 232.069 234.574 232.362 235.069C232.654 235.564 232.946 236.643 233.239 238.307C233.364 238.951 233.489 239.588 233.615 240.218L238.751 264.926C239.002 266.125 239.618 267.039 240.599 267.669C240.871 267.834 241.048 267.965 241.132 268.062C241.216 268.16 241.257 268.456 241.257 268.951C241.257 269.715 241.184 270.183 241.038 270.356C240.892 270.528 240.579 270.614 240.098 270.614H226.16C225.742 270.614 225.533 270.33 225.533 269.76C225.533 269.041 225.586 268.591 225.69 268.411C225.794 268.231 226.097 268.021 226.598 267.781C227.329 267.452 227.695 267.032 227.695 266.522C227.695 265.998 227.475 264.776 227.037 262.858L227.037 262.859ZM223.278 242.805L219.802 260.274H226.692L223.278 242.805Z" fill="black"/>
<path id="path4876" d="M256.987 268.075H258.772C259.691 268.075 260.37 267.813 260.808 267.288C261.247 266.763 261.821 265.549 262.531 263.646C262.782 262.911 263.084 262.465 263.439 262.308C263.794 262.151 264.4 262.072 265.256 262.072C266.196 262.072 266.801 262.128 267.073 262.241C267.344 262.353 267.48 262.559 267.48 262.859C267.48 263.069 267.428 263.406 267.323 263.871L266.227 269.244C266.102 269.799 265.94 270.166 265.742 270.346C265.543 270.526 265.141 270.616 264.536 270.616H243.926C243.049 270.616 242.61 270.226 242.61 269.447C242.61 268.847 242.668 268.461 242.782 268.289C242.897 268.116 243.143 267.985 243.518 267.895C244.709 267.625 245.304 266.838 245.304 265.534V238.825C245.304 238.27 244.928 237.873 244.176 237.633C243.529 237.438 243.132 237.221 242.986 236.981C242.84 236.741 242.767 236.344 242.767 235.789C242.767 235.13 242.829 234.721 242.955 234.564C243.08 234.407 243.414 234.328 243.957 234.328H258.396C258.939 234.328 259.31 234.422 259.508 234.609C259.707 234.796 259.806 235.302 259.806 236.127C259.806 236.621 259.738 236.955 259.602 237.127C259.467 237.299 259.117 237.453 258.553 237.588C257.509 237.843 256.987 238.337 256.987 239.072L256.987 268.075Z" fill="black"/>
<path id="path4878" d="M283.163 237.088V249.926H285.293C285.877 249.926 286.305 249.836 286.577 249.656C286.848 249.477 287.057 249.087 287.203 248.487C287.454 247.423 287.657 246.786 287.814 246.576C287.971 246.366 288.216 246.261 288.55 246.261C290.2 246.261 291.134 246.31 291.354 246.408C291.573 246.505 291.682 246.883 291.682 247.543V255.03C291.682 255.495 291.578 255.798 291.369 255.94C291.16 256.083 290.513 256.154 289.427 256.154C288.717 256.154 288.242 256.06 288.002 255.873C287.762 255.686 287.527 255.157 287.297 254.288C287.068 253.494 286.843 253.006 286.624 252.826C286.405 252.647 286.065 252.557 285.606 252.557H283.163V268.047H284.823C285.846 268.047 286.551 267.841 286.937 267.429C287.324 267.017 287.945 265.829 288.801 263.865C289.156 263.041 289.521 262.501 289.897 262.247C290.273 261.992 290.931 261.865 291.871 261.865C293.165 261.865 293.812 262.164 293.812 262.764C293.812 262.944 293.771 263.206 293.687 263.551L292.528 268.654C292.319 269.584 292.147 270.142 292.011 270.329C291.876 270.517 291.453 270.61 290.743 270.61H269.851C269.329 270.61 268.995 270.524 268.849 270.352C268.703 270.179 268.63 269.681 268.63 268.857C268.63 268.332 269.006 267.95 269.757 267.71C270.906 267.365 271.48 266.893 271.48 266.294V238.257C271.459 237.973 270.989 237.688 270.07 237.403C269.444 237.208 269.073 237.021 268.959 236.841C268.844 236.661 268.786 236.227 268.786 235.537C268.786 234.952 268.849 234.604 268.974 234.492C269.1 234.379 269.465 234.323 270.071 234.323H290.053C290.555 234.323 290.92 234.383 291.15 234.503C291.379 234.623 291.557 234.908 291.682 235.357L293.28 241.158C293.363 241.458 293.405 241.66 293.405 241.765C293.405 242.17 292.904 242.372 291.901 242.372C290.774 242.372 290.022 242.278 289.646 242.091C289.27 241.904 288.905 241.435 288.55 240.686C287.903 239.337 287.344 238.4 286.874 237.875C286.404 237.351 285.877 237.088 285.292 237.088L283.163 237.088Z" fill="black"/>
</g>
<g id="text4336">
<path id="path4863" d="M202.664 235.296C202.789 235.221 203.144 234.884 203.729 234.284C204.105 233.894 204.606 233.7 205.232 233.699C205.379 233.7 205.963 233.752 206.987 233.857C207.195 234.007 207.352 234.322 207.456 234.801L209.148 242.423C209.231 242.828 209.273 243.068 209.273 243.142C209.273 243.427 209.163 243.615 208.944 243.705C208.725 243.794 208.145 243.839 207.206 243.839C206.141 243.839 205.452 243.742 205.138 243.547C204.825 243.352 204.23 242.543 203.353 241.119C201.495 238.106 199.835 236.6 198.373 236.6C197.329 236.6 196.807 237.124 196.807 238.174C196.807 239.478 198.383 242.041 201.536 245.863C205.149 250.27 207.503 253.458 208.599 255.429C209.696 257.401 210.244 259.608 210.244 262.051C210.244 264.944 209.294 267.162 207.394 268.706C205.493 270.25 203.353 271.022 200.972 271.022C199.469 271.022 198.018 270.714 196.619 270.1C196.076 269.86 195.648 269.74 195.334 269.74C195.063 269.74 194.844 269.882 194.677 270.167C194.342 270.737 193.528 271.022 192.233 271.022C191.732 271.022 191.393 270.965 191.215 270.853C191.038 270.741 190.907 270.444 190.824 269.965L189.258 262.478C189.049 261.519 188.945 261.009 188.945 260.949C188.945 260.514 189.498 260.297 190.605 260.297C192.108 260.297 192.996 260.439 193.267 260.724C193.538 261.009 193.925 261.661 194.426 262.68C196.264 266.322 198.112 268.144 199.97 268.144C200.659 268.144 201.218 267.964 201.646 267.604C202.074 267.244 202.288 266.795 202.288 266.255C202.288 265.311 201.813 264.19 200.863 262.894C199.913 261.597 198.748 260.155 197.37 258.566C194.071 254.759 191.737 251.72 190.37 249.449C189.002 247.178 188.318 244.859 188.318 242.49C188.318 239.822 189.133 237.694 190.761 236.105C192.39 234.516 194.384 233.722 196.744 233.722C198.373 233.722 200.346 234.247 202.664 235.296L202.664 235.296Z" fill="#DEE3DB"/>
<path id="path4865" d="M227.037 262.859H219.206L218.862 264.927C218.862 264.972 218.841 265.04 218.799 265.13C218.632 265.564 218.549 265.954 218.549 266.299C218.549 266.838 219.039 267.295 220.021 267.67C220.543 267.865 220.866 268.067 220.992 268.277C221.117 268.487 221.18 268.832 221.18 269.311C221.18 269.926 221.133 270.297 221.039 270.424C220.945 270.552 220.72 270.615 220.365 270.615H212.096C211.637 270.615 211.407 270.271 211.407 269.581C211.407 268.757 211.772 268.09 212.503 267.58C213.192 267.116 213.589 266.621 213.693 266.096L219.488 239.633C219.593 239.228 219.645 238.876 219.645 238.576C219.645 238.112 219.196 237.699 218.298 237.34C217.88 237.16 217.671 236.763 217.671 236.148C217.671 235.324 217.734 234.814 217.859 234.619C217.985 234.424 218.319 234.327 218.862 234.327H230.827C231.558 234.327 232.069 234.574 232.362 235.069C232.654 235.564 232.946 236.643 233.239 238.307C233.364 238.951 233.489 239.588 233.615 240.218L238.751 264.926C239.002 266.125 239.618 267.039 240.599 267.669C240.871 267.834 241.048 267.965 241.132 268.062C241.216 268.16 241.257 268.456 241.257 268.951C241.257 269.715 241.184 270.183 241.038 270.356C240.892 270.528 240.579 270.614 240.098 270.614H226.16C225.742 270.614 225.533 270.33 225.533 269.76C225.533 269.041 225.586 268.591 225.69 268.411C225.794 268.231 226.097 268.021 226.598 267.781C227.329 267.452 227.695 267.032 227.695 266.522C227.695 265.998 227.475 264.776 227.037 262.858L227.037 262.859ZM223.278 242.805L219.802 260.274H226.692L223.278 242.805Z" fill="#DEE3DB"/>
<path id="path4867" d="M256.987 268.075H258.772C259.691 268.075 260.37 267.813 260.808 267.288C261.247 266.763 261.821 265.549 262.531 263.646C262.782 262.911 263.084 262.465 263.439 262.308C263.794 262.151 264.4 262.072 265.256 262.072C266.196 262.072 266.801 262.128 267.073 262.241C267.344 262.353 267.48 262.559 267.48 262.859C267.48 263.069 267.428 263.406 267.323 263.871L266.227 269.244C266.102 269.799 265.94 270.166 265.742 270.346C265.543 270.526 265.141 270.616 264.536 270.616H243.926C243.049 270.616 242.61 270.226 242.61 269.447C242.61 268.847 242.668 268.461 242.782 268.289C242.897 268.116 243.143 267.985 243.518 267.895C244.709 267.625 245.304 266.838 245.304 265.534V238.825C245.304 238.27 244.928 237.873 244.176 237.633C243.529 237.438 243.132 237.221 242.986 236.981C242.84 236.741 242.767 236.344 242.767 235.789C242.767 235.13 242.829 234.721 242.955 234.564C243.08 234.407 243.414 234.328 243.957 234.328H258.396C258.939 234.328 259.31 234.422 259.508 234.609C259.707 234.796 259.806 235.302 259.806 236.127C259.806 236.621 259.738 236.955 259.602 237.127C259.467 237.299 259.117 237.453 258.553 237.588C257.509 237.843 256.987 238.337 256.987 239.072L256.987 268.075Z" fill="#DEE3DB"/>
<path id="path4869" d="M283.163 237.088V249.926H285.293C285.877 249.926 286.305 249.836 286.577 249.656C286.848 249.477 287.057 249.087 287.203 248.487C287.454 247.423 287.657 246.786 287.814 246.576C287.971 246.366 288.216 246.261 288.55 246.261C290.2 246.261 291.134 246.31 291.354 246.408C291.573 246.505 291.682 246.883 291.682 247.543V255.03C291.682 255.495 291.578 255.798 291.369 255.94C291.16 256.083 290.513 256.154 289.427 256.154C288.717 256.154 288.242 256.06 288.002 255.873C287.762 255.686 287.527 255.157 287.297 254.288C287.068 253.494 286.843 253.006 286.624 252.826C286.405 252.647 286.065 252.557 285.606 252.557H283.163V268.047H284.823C285.846 268.047 286.551 267.841 286.937 267.429C287.324 267.017 287.945 265.829 288.801 263.865C289.156 263.041 289.521 262.501 289.897 262.247C290.273 261.992 290.931 261.865 291.871 261.865C293.165 261.865 293.812 262.164 293.812 262.764C293.812 262.944 293.771 263.206 293.687 263.551L292.528 268.654C292.319 269.584 292.147 270.142 292.011 270.329C291.876 270.517 291.453 270.61 290.743 270.61H269.851C269.329 270.61 268.995 270.524 268.849 270.352C268.703 270.179 268.63 269.681 268.63 268.857C268.63 268.332 269.006 267.95 269.757 267.71C270.906 267.365 271.48 266.893 271.48 266.294V238.257C271.459 237.973 270.989 237.688 270.07 237.403C269.444 237.208 269.073 237.021 268.959 236.841C268.844 236.661 268.786 236.227 268.786 235.537C268.786 234.952 268.849 234.604 268.974 234.492C269.1 234.379 269.465 234.323 270.071 234.323H290.053C290.555 234.323 290.92 234.383 291.15 234.503C291.379 234.623 291.557 234.908 291.682 235.357L293.28 241.158C293.363 241.458 293.405 241.66 293.405 241.765C293.405 242.17 292.904 242.372 291.901 242.372C290.774 242.372 290.022 242.278 289.646 242.091C289.27 241.904 288.905 241.435 288.55 240.686C287.903 239.337 287.344 238.4 286.874 237.875C286.404 237.351 285.877 237.088 285.292 237.088L283.163 237.088Z" fill="#DEE3DB"/>
</g>
</g>
<path id="rect4340" d="M308.029 229.514H174.714C170.871 229.514 167.756 231.883 167.756 234.805V270.585C167.756 273.508 170.871 275.877 174.714 275.877H308.029C311.872 275.877 314.987 273.508 314.987 270.585V234.805C314.987 231.883 311.872 229.514 308.029 229.514Z" stroke="#008000" stroke-width="0.94089"/>
</g>
</g>
</g>
<g id="Sold 1" clip-path="url(#clip0)">
<g id="layer1_2">
<g id="g5048">
<g id="rect3094_2" filter="url(#filter4_f)">
<path d="M1263.7 424.818H1178.3C1173.53 424.818 1169.66 426.754 1169.66 429.141V444.828C1169.66 447.215 1173.53 449.151 1178.3 449.151H1263.7C1268.47 449.151 1272.34 447.215 1272.34 444.828V429.141C1272.34 426.754 1268.47 424.818 1263.7 424.818Z" fill="#333333"/>
</g>
<g id="path3918_2" filter="url(#filter5_f)">
<path d="M1241.82 440.554C1241.82 438.507 1240.15 436.544 1237.19 435.097C1234.24 433.65 1230.22 432.837 1226.04 432.837C1221.85 432.837 1217.84 433.65 1214.88 435.097C1211.92 436.544 1210.26 438.507 1210.26 440.554" fill="#005500"/>
</g>
<path id="path3890_2" d="M1257.55 400.296C1257.84 400.301 1258.13 400.317 1258.42 400.342C1249.2 400.542 1238.29 410.844 1232.9 425.047C1230.75 430.72 1229.77 436.241 1229.85 441.083H1223.06C1223.28 435.54 1225.24 428.97 1228.98 422.343C1236.43 409.154 1248.45 400.135 1257.55 400.296L1257.55 400.296Z" fill="#0B280B"/>
<g id="g3069_2">
<path id="rect2995_2" d="M1225.81 260.999H1225.05C1220.39 260.999 1216.61 264.297 1216.61 268.365V434.358C1216.61 438.426 1220.39 441.724 1225.05 441.724H1225.81C1230.47 441.724 1234.25 438.426 1234.25 434.358V268.365C1234.25 264.297 1230.47 260.999 1225.81 260.999Z" fill="url(#paint2_linear)"/>
<g id="g3033_2" opacity="0.1">
<path id="path3025_2" opacity="0.1" d="M1232.79 344.162C1232.79 369.521 1231.68 390.08 1230.31 390.08C1228.94 390.08 1227.84 369.521 1227.84 344.162C1227.84 318.802 1228.94 298.244 1230.31 298.244C1231.68 298.244 1232.79 318.802 1232.79 344.162Z" fill="#D45500"/>
<path id="path3029_2" opacity="0.1" d="M1232.24 344.16C1232.24 365.737 1231.38 383.228 1230.31 383.228C1229.25 383.228 1228.38 365.737 1228.38 344.16C1228.38 322.584 1229.25 305.092 1230.31 305.092C1231.38 305.092 1232.24 322.584 1232.24 344.16Z" fill="#FF6600"/>
<path id="path3027_2" opacity="0.1" d="M1231.89 344.16C1231.89 361.746 1231.18 376.002 1230.31 376.002C1229.45 376.002 1228.74 361.746 1228.74 344.16C1228.74 326.574 1229.45 312.318 1230.31 312.318C1231.18 312.318 1231.89 326.574 1231.89 344.16Z" fill="#552200"/>
<path id="path3031_2" opacity="0.1" d="M1231.51 344.16C1231.51 357.483 1230.97 368.283 1230.31 368.283C1229.66 368.283 1229.12 357.483 1229.12 344.16C1229.12 330.838 1229.66 320.038 1230.31 320.038C1230.97 320.038 1231.51 330.838 1231.51 344.16Z" fill="#FFB380"/>
</g>
<g id="g3039_2" opacity="0.1">
<path id="path3041_2" opacity="0.1" d="M1222.43 392.536C1222.43 417.895 1221.32 438.454 1219.96 438.454C1218.59 438.454 1217.48 417.895 1217.48 392.536C1217.48 367.176 1218.59 346.618 1219.96 346.618C1221.32 346.618 1222.43 367.176 1222.43 392.536Z" fill="#D45500"/>
<path id="path3043_2" opacity="0.1" d="M1221.88 392.534C1221.88 414.111 1221.02 431.602 1219.96 431.602C1218.89 431.602 1218.03 414.111 1218.03 392.534C1218.03 370.958 1218.89 353.466 1219.96 353.466C1221.02 353.466 1221.88 370.958 1221.88 392.534Z" fill="#FF6600"/>
<path id="path3045_2" opacity="0.1" d="M1221.53 392.534C1221.53 410.12 1220.82 424.376 1219.96 424.376C1219.09 424.376 1218.39 410.12 1218.39 392.534C1218.39 374.948 1219.09 360.692 1219.96 360.692C1220.82 360.692 1221.53 374.948 1221.53 392.534Z" fill="#552200"/>
<path id="path3047_2" opacity="0.1" d="M1221.15 392.534C1221.15 405.857 1220.61 416.657 1219.96 416.657C1219.3 416.657 1218.77 405.857 1218.77 392.534C1218.77 379.212 1219.3 368.412 1219.96 368.412C1220.61 368.412 1221.15 379.212 1221.15 392.534Z" fill="#FFB380"/>
</g>
<g id="g3049_2" opacity="0.1">
<path id="path3051_2" opacity="0.1" d="M1226.04 308.373C1226.04 333.733 1224.93 354.291 1223.56 354.291C1222.19 354.291 1221.08 333.733 1221.08 308.373C1221.08 283.013 1222.19 262.455 1223.56 262.455C1224.93 262.455 1226.04 283.013 1226.04 308.373Z" fill="#D45500"/>
<path id="path3053_2" opacity="0.1" d="M1225.49 308.372C1225.49 329.948 1224.63 347.44 1223.56 347.44C1222.5 347.44 1221.63 329.948 1221.63 308.372C1221.63 286.795 1222.5 269.304 1223.56 269.304C1224.63 269.304 1225.49 286.795 1225.49 308.372Z" fill="#FF6600"/>
<path id="path3055_2" opacity="0.1" d="M1225.13 308.371C1225.13 325.957 1224.43 340.213 1223.56 340.213C1222.69 340.213 1221.99 325.957 1221.99 308.371C1221.99 290.786 1222.69 276.529 1223.56 276.529C1224.43 276.529 1225.13 290.786 1225.13 308.371Z" fill="#552200"/>
<path id="path3057_2" opacity="0.1" d="M1224.75 308.372C1224.75 321.694 1224.22 332.494 1223.56 332.494C1222.9 332.494 1222.37 321.694 1222.37 308.372C1222.37 295.049 1222.9 284.249 1223.56 284.249C1224.22 284.249 1224.75 295.049 1224.75 308.372Z" fill="#FFB380"/>
</g>
<g id="g3059_2" opacity="0.1">
<path id="path3061_2" opacity="0.1" d="M1232.79 408.464C1232.79 422.203 1231.68 433.34 1230.31 433.34C1228.94 433.34 1227.84 422.203 1227.84 408.464C1227.84 394.725 1228.94 383.588 1230.31 383.588C1231.68 383.588 1232.79 394.725 1232.79 408.464Z" fill="#D45500"/>
<path id="path3063_2" opacity="0.1" d="M1232.24 408.463C1232.24 420.153 1231.38 429.629 1230.31 429.629C1229.25 429.629 1228.38 420.153 1228.38 408.463C1228.38 396.774 1229.25 387.298 1230.31 387.298C1231.38 387.298 1232.24 396.774 1232.24 408.463Z" fill="#FF6600"/>
<path id="path3065_2" opacity="0.1" d="M1231.89 408.463C1231.89 417.99 1231.18 425.714 1230.31 425.714C1229.45 425.714 1228.74 417.99 1228.74 408.463C1228.74 398.936 1229.45 391.213 1230.31 391.213C1231.18 391.213 1231.89 398.936 1231.89 408.463Z" fill="#552200"/>
<path id="path3067_2" opacity="0.1" d="M1231.51 408.463C1231.51 415.681 1230.97 421.532 1230.31 421.532C1229.66 421.532 1229.12 415.681 1229.12 408.463C1229.12 401.246 1229.66 395.395 1230.31 395.395C1230.97 395.395 1231.51 401.246 1231.51 408.463Z" fill="#FFB380"/>
</g>
</g>
<path id="rect2985_2" d="M1304.27 277.252H1153.16C1149.19 277.252 1145.96 279.676 1145.96 282.667V333.744C1145.96 336.735 1149.19 339.16 1153.16 339.16H1304.27C1308.24 339.16 1311.47 336.735 1311.47 333.744V282.667C1311.47 279.676 1308.24 277.252 1304.27 277.252Z" fill="url(#paint3_linear)"/>
<path id="path3876_2" d="M1186.14 398.439C1185.84 398.444 1185.55 398.461 1185.27 398.485C1194.48 398.685 1205.39 408.987 1210.79 423.19C1212.94 428.864 1213.92 434.384 1213.83 439.226H1220.63C1220.4 433.683 1218.44 427.113 1214.7 420.486C1207.25 407.297 1195.23 398.279 1186.14 398.44L1186.14 398.439Z" fill="#0B280B"/>
<path id="path3884_2" d="M1186.41 413.28C1186.12 413.284 1185.83 413.294 1185.54 413.31C1194.76 413.443 1205.67 420.258 1211.06 429.654C1213.22 433.407 1214.19 437.059 1214.11 440.262H1220.9C1220.68 436.595 1218.72 432.248 1214.98 427.864C1207.53 419.139 1195.51 413.174 1186.41 413.28L1186.41 413.28Z" fill="#005500"/>
<path id="path3886_2" d="M1196.27 415.137C1195.97 415.141 1195.68 415.151 1195.4 415.167C1204.62 415.299 1215.52 422.114 1220.92 431.51C1223.07 435.264 1224.05 438.915 1223.96 442.118H1230.76C1230.53 438.452 1228.57 434.105 1224.83 429.721C1217.39 421 1205.36 415.037 1196.27 415.142L1196.27 415.137Z" fill="#002B00"/>
<path id="path3888_2" d="M1265.49 399.681C1265.79 399.687 1266.08 399.703 1266.36 399.727C1257.15 399.927 1246.24 410.229 1240.84 424.432C1238.69 430.106 1237.71 435.626 1237.8 440.468H1231C1231.23 434.925 1233.19 428.355 1236.93 421.728C1244.38 408.539 1256.4 399.521 1265.49 399.682L1265.49 399.681Z" fill="#005500"/>
<path id="path3892_2" d="M1263.3 419.046C1263.6 419.049 1263.89 419.058 1264.17 419.073C1254.95 419.188 1244.05 425.118 1238.65 433.294C1236.5 436.56 1235.52 439.737 1235.61 442.525H1228.81C1229.04 439.334 1231 435.552 1234.74 431.737C1242.19 424.144 1254.21 418.953 1263.3 419.046L1263.3 419.046Z" fill="#008000"/>
<path id="path3894_2" d="M1190.51 418.432C1190.22 418.434 1189.93 418.443 1189.65 418.458C1198.86 418.573 1209.77 424.503 1215.16 432.679C1217.32 435.945 1218.3 439.123 1218.21 441.91H1225C1224.78 438.719 1222.82 434.937 1219.08 431.122C1211.63 423.53 1199.61 418.338 1190.52 418.431L1190.51 418.432Z" fill="#165016"/>
<path id="path3896_2" d="M1206.65 435.325C1206.55 435.326 1206.45 435.329 1206.36 435.332C1209.43 435.363 1213.07 436.974 1214.87 439.195C1215.59 440.082 1215.92 440.945 1215.89 441.703H1218.16C1218.08 440.836 1217.43 439.808 1216.18 438.772C1213.69 436.71 1209.68 435.299 1206.65 435.325L1206.65 435.325Z" fill="#1F241C"/>
<path id="path3898_2" d="M1232.11 435.534C1232.21 435.535 1232.3 435.538 1232.4 435.541C1229.32 435.572 1225.68 437.183 1223.88 439.404C1223.16 440.292 1222.84 441.155 1222.87 441.912H1220.6C1220.67 441.045 1221.33 440.018 1222.58 438.981C1225.06 436.919 1229.08 435.509 1232.11 435.534L1232.11 435.534Z" fill="#008000"/>
<g id="path3900_2" filter="url(#filter6_f)">
<path d="M1241.82 440.257C1241.82 442.303 1240.15 444.266 1237.19 445.713C1234.24 447.16 1230.22 447.973 1226.04 447.973C1221.85 447.973 1217.84 447.16 1214.88 445.713C1211.92 444.266 1210.26 442.303 1210.26 440.257" fill="#005500"/>
</g>
<g id="g5036">
<g id="text3924" filter="url(#filter7_f)">
<path id="path5019" d="M1168.56 301.284C1168.56 299.616 1169.14 298.15 1170.3 296.888C1171.47 295.626 1173.02 294.658 1174.95 293.986C1176.88 293.314 1178.93 292.977 1181.11 292.977C1182.41 292.977 1183.81 293.084 1185.29 293.296C1186.77 293.509 1188.06 293.888 1189.15 294.433C1190.25 294.979 1190.8 295.715 1190.8 296.641C1190.8 297.453 1190.45 298.144 1189.77 298.715C1189.09 299.286 1188.22 299.571 1187.17 299.571C1186.71 299.571 1186.31 299.53 1185.98 299.448L1184.52 299.058C1183.27 298.721 1182.07 298.553 1180.94 298.553C1179.96 298.553 1179.05 298.74 1178.24 299.115C1177.42 299.489 1177.01 300.015 1177.01 300.694C1177.01 301.76 1178.08 302.502 1180.22 302.921L1182.35 303.349C1185.69 304.028 1188.33 304.946 1190.29 306.104C1192.25 307.261 1193.22 308.941 1193.22 311.142C1193.22 313.832 1192.24 315.95 1190.28 317.498C1189.11 318.456 1187.64 319.157 1185.87 319.601C1184.1 320.045 1182.25 320.267 1180.32 320.267C1176.8 320.267 1173.77 319.81 1171.25 318.897C1170.37 318.579 1169.66 318.148 1169.12 317.603C1168.58 317.057 1168.31 316.435 1168.31 315.738C1168.31 315.053 1168.65 314.434 1169.33 313.882C1170.01 313.33 1170.81 313.054 1171.72 313.054C1172.5 313.054 1173.17 313.146 1173.75 313.33L1176.49 314.101C1177.82 314.494 1179.12 314.691 1180.37 314.691C1181.5 314.691 1182.51 314.451 1183.4 313.973C1184.28 313.494 1184.72 312.835 1184.72 311.998C1184.72 311.148 1184.29 310.514 1183.43 310.095C1182.73 309.759 1182.03 309.507 1181.36 309.339C1180.69 309.171 1179.53 308.903 1177.89 308.535C1175.78 308.072 1174.08 307.586 1172.8 307.079C1171.51 306.571 1170.49 305.853 1169.72 304.924C1168.94 303.994 1168.56 302.781 1168.56 301.284L1168.56 301.284Z" fill="#280B0B" stroke="#2B0000" stroke-width="0.23673"/>
<path id="path5021" d="M1197.08 306.432C1197.08 304.427 1197.55 302.534 1198.49 300.751C1199.43 298.969 1200.84 297.443 1202.73 296.174C1205.87 294.043 1209.67 292.977 1214.13 292.977C1216.69 292.977 1219.03 293.315 1221.13 293.991C1223.24 294.666 1225.04 295.616 1226.55 296.84C1228.06 298.065 1229.22 299.495 1230.02 301.132C1230.82 302.768 1231.22 304.535 1231.22 306.432C1231.22 308.538 1230.75 310.523 1229.82 312.388C1228.89 314.253 1227.46 315.839 1225.53 317.146C1224.01 318.186 1222.28 318.966 1220.33 319.486C1218.39 320.006 1216.34 320.267 1214.18 320.267C1211.8 320.267 1209.54 319.943 1207.39 319.296C1205.24 318.649 1203.37 317.697 1201.8 316.441C1198.65 313.942 1197.08 310.605 1197.08 306.432L1197.08 306.432ZM1205.53 306.47C1205.53 307.878 1205.83 309.231 1206.45 310.528C1207.06 311.825 1208.01 312.882 1209.31 313.697C1210.61 314.512 1212.23 314.919 1214.18 314.919C1216.16 314.919 1217.8 314.52 1219.08 313.72C1220.37 312.921 1221.31 311.882 1221.9 310.604C1222.49 309.326 1222.78 307.948 1222.78 306.47C1222.78 305.055 1222.47 303.723 1221.85 302.473C1221.22 301.224 1220.25 300.22 1218.94 299.462C1217.63 298.704 1216.01 298.325 1214.08 298.325C1212.97 298.325 1211.88 298.512 1210.82 298.886C1209.76 299.261 1208.86 299.762 1208.12 300.39C1206.39 301.861 1205.53 303.888 1205.53 306.47L1205.53 306.47Z" fill="#280B0B" stroke="#2B0000" stroke-width="0.23673"/>
<path id="path5023" d="M1244.01 314.263H1252.19C1253.34 314.263 1254.28 314.498 1255.02 314.967C1255.76 315.437 1256.13 316.096 1256.13 316.946C1256.13 317.758 1255.75 318.404 1255 318.883C1254.25 319.362 1253.32 319.601 1252.19 319.601H1241.05C1239.5 319.601 1238.28 319.273 1237.4 318.616C1236.52 317.96 1236.08 317.041 1236.08 315.862V296.527C1236.08 295.594 1236.43 294.809 1237.14 294.172C1237.85 293.534 1238.82 293.215 1240.06 293.215C1241.29 293.215 1242.26 293.534 1242.96 294.172C1243.66 294.809 1244.01 295.594 1244.01 296.527L1244.01 314.263Z" fill="#280B0B" stroke="#2B0000" stroke-width="0.23673"/>
<path id="path5025" d="M1259.05 315.901V297.232C1259.05 296.103 1259.47 295.216 1260.32 294.572C1261.17 293.928 1262.35 293.607 1263.87 293.606H1271.33C1275.82 293.607 1279.5 294.399 1282.36 295.985C1284.46 297.14 1286.05 298.675 1287.13 300.591C1288.2 302.506 1288.74 304.517 1288.74 306.623C1288.74 309.097 1288.09 311.32 1286.79 313.293C1285.49 315.266 1283.61 316.811 1281.15 317.927C1278.69 319.044 1275.79 319.602 1272.47 319.602L1263.77 319.526C1262.29 319.526 1261.14 319.204 1260.3 318.56C1259.47 317.916 1259.05 317.029 1259.05 315.9L1259.05 315.901ZM1266.98 314.416H1270.91C1273.87 314.416 1276.08 313.833 1277.54 312.665C1279.37 311.219 1280.29 309.205 1280.29 306.623C1280.29 303.87 1279.23 301.805 1277.13 300.429C1275.55 299.363 1273.18 298.83 1270.03 298.83H1266.98L1266.98 314.416Z" fill="#280B0B" stroke="#2B0000" stroke-width="0.23673"/>
</g>
<g id="text3920">
<path id="path5028" d="M1168.55 301.284C1168.55 299.616 1169.13 298.151 1170.29 296.888C1171.46 295.626 1173.01 294.659 1174.94 293.986C1176.87 293.314 1178.92 292.978 1181.1 292.978C1182.4 292.978 1183.8 293.084 1185.28 293.296C1186.76 293.509 1188.05 293.888 1189.14 294.433C1190.24 294.979 1190.79 295.715 1190.79 296.641C1190.79 297.453 1190.45 298.144 1189.76 298.715C1189.08 299.286 1188.21 299.572 1187.16 299.572C1186.7 299.572 1186.3 299.53 1185.97 299.448L1184.51 299.058C1183.26 298.722 1182.06 298.554 1180.93 298.554C1179.95 298.554 1179.04 298.741 1178.23 299.115C1177.41 299.489 1177 300.016 1177 300.694C1177 301.76 1178.07 302.502 1180.21 302.921L1182.34 303.349C1185.68 304.028 1188.32 304.946 1190.28 306.104C1192.24 307.262 1193.22 308.941 1193.22 311.142C1193.22 313.832 1192.23 315.951 1190.27 317.498C1189.1 318.456 1187.63 319.157 1185.86 319.601C1184.09 320.045 1182.24 320.267 1180.31 320.267C1176.79 320.267 1173.77 319.811 1171.24 318.897C1170.36 318.58 1169.65 318.149 1169.11 317.603C1168.57 317.057 1168.3 316.436 1168.3 315.738C1168.3 315.053 1168.64 314.434 1169.32 313.883C1170 313.331 1170.8 313.055 1171.71 313.055C1172.49 313.055 1173.16 313.147 1173.74 313.331L1176.48 314.101C1177.81 314.495 1179.11 314.691 1180.36 314.691C1181.49 314.691 1182.5 314.452 1183.39 313.973C1184.27 313.494 1184.72 312.836 1184.72 311.999C1184.72 311.149 1184.29 310.514 1183.43 310.096C1182.72 309.759 1182.03 309.507 1181.35 309.339C1180.68 309.171 1179.52 308.903 1177.88 308.535C1175.77 308.072 1174.07 307.587 1172.79 307.079C1171.51 306.572 1170.48 305.853 1169.71 304.924C1168.94 303.995 1168.55 302.782 1168.55 301.284L1168.55 301.284Z" fill="#E2E3DB" stroke="#2B0000" stroke-width="0.23673"/>
<path id="path5030" d="M1197.07 306.432C1197.07 304.428 1197.54 302.534 1198.48 300.752C1199.42 298.969 1200.84 297.444 1202.73 296.175C1205.87 294.043 1209.66 292.978 1214.13 292.978C1216.69 292.978 1219.02 293.316 1221.13 293.991C1223.23 294.667 1225.04 295.617 1226.55 296.841C1228.06 298.065 1229.21 299.496 1230.01 301.132C1230.81 302.769 1231.21 304.536 1231.21 306.432C1231.21 308.538 1230.75 310.524 1229.82 312.389C1228.88 314.254 1227.45 315.84 1225.52 317.147C1224 318.187 1222.27 318.967 1220.33 319.487C1218.39 320.007 1216.33 320.268 1214.18 320.268C1211.8 320.268 1209.53 319.944 1207.38 319.297C1205.23 318.65 1203.37 317.698 1201.79 316.442C1198.65 313.943 1197.07 310.606 1197.07 306.432V306.432ZM1205.52 306.47C1205.52 307.879 1205.83 309.231 1206.44 310.529C1207.05 311.826 1208.01 312.882 1209.31 313.697C1210.6 314.512 1212.23 314.92 1214.18 314.92C1216.16 314.92 1217.79 314.52 1219.08 313.721C1220.36 312.922 1221.3 311.883 1221.89 310.605C1222.48 309.326 1222.78 307.948 1222.78 306.47C1222.78 305.056 1222.47 303.724 1221.84 302.474C1221.22 301.224 1220.25 300.22 1218.94 299.462C1217.63 298.704 1216.01 298.325 1214.07 298.325C1212.96 298.325 1211.88 298.512 1210.82 298.887C1209.76 299.261 1208.86 299.762 1208.12 300.39C1206.39 301.862 1205.52 303.889 1205.52 306.47L1205.52 306.47Z" fill="#E2E3DB" stroke="#2B0000" stroke-width="0.23673"/>
<path id="path5032" d="M1244 314.27H1252.19C1253.34 314.27 1254.28 314.504 1255.02 314.974C1255.75 315.443 1256.12 316.103 1256.12 316.953C1256.12 317.765 1255.75 318.41 1255 318.889C1254.25 319.368 1253.31 319.608 1252.19 319.608H1241.04C1239.49 319.608 1238.28 319.279 1237.39 318.623C1236.51 317.966 1236.07 317.048 1236.07 315.868V296.534C1236.07 295.601 1236.43 294.816 1237.14 294.179C1237.84 293.541 1238.82 293.222 1240.06 293.222C1241.29 293.222 1242.25 293.541 1242.95 294.179C1243.65 294.816 1244 295.601 1244 296.534L1244 314.27Z" fill="#E2E3DB" stroke="#2B0000" stroke-width="0.23673"/>
<path id="path5034" d="M1259.04 315.904V297.235C1259.04 296.106 1259.47 295.219 1260.31 294.575C1261.16 293.932 1262.34 293.61 1263.86 293.61H1271.33C1275.81 293.61 1279.49 294.403 1282.36 295.988C1284.46 297.143 1286.04 298.678 1287.12 300.594C1288.19 302.509 1288.73 304.52 1288.73 306.626C1288.73 309.1 1288.08 311.324 1286.78 313.297C1285.48 315.269 1283.6 316.814 1281.14 317.931C1278.68 319.047 1275.79 319.605 1272.46 319.605L1263.76 319.529C1262.29 319.529 1261.13 319.207 1260.3 318.563C1259.46 317.92 1259.04 317.033 1259.04 315.904L1259.04 315.904ZM1266.97 314.42H1270.91C1273.86 314.42 1276.07 313.836 1277.54 312.669C1279.37 311.226 1280.28 309.212 1280.28 306.631C1280.28 303.877 1279.23 301.812 1277.12 300.436C1275.54 299.37 1273.18 298.838 1270.02 298.838H1266.97V314.42Z" fill="#E2E3DB" stroke="#2B0000" stroke-width="0.23673"/>
</g>
</g>
<g id="g3940_2">
<path id="path3932_2" d="M1220.28 280.217C1220.28 280.823 1219.63 281.315 1218.82 281.315C1218.02 281.315 1217.36 280.823 1217.36 280.217C1217.36 279.611 1218.02 279.119 1218.82 279.119C1219.63 279.119 1220.28 279.611 1220.28 280.217Z" fill="#B3B3B3"/>
<path id="rect3936_2" d="M1218.83 279.304H1218.81C1218.76 279.304 1218.72 279.333 1218.72 279.367V281.025C1218.72 281.06 1218.76 281.088 1218.81 281.088H1218.83C1218.88 281.088 1218.91 281.06 1218.91 281.025V279.367C1218.91 279.333 1218.88 279.304 1218.83 279.304Z" fill="white"/>
<path id="rect3938_2" d="M1220 280.203V280.188C1220 280.153 1219.97 280.125 1219.92 280.125H1217.72C1217.67 280.125 1217.63 280.153 1217.63 280.188V280.203C1217.63 280.238 1217.67 280.266 1217.72 280.266H1219.92C1219.97 280.266 1220 280.238 1220 280.203Z" fill="white"/>
</g>
<g id="g3945_2">
<path id="path3947_2" d="M1233.95 280.047C1233.95 280.653 1233.29 281.145 1232.49 281.145C1231.68 281.145 1231.03 280.653 1231.03 280.047C1231.03 279.441 1231.68 278.949 1232.49 278.949C1233.29 278.949 1233.95 279.441 1233.95 280.047Z" fill="#B3B3B3"/>
<path id="rect3949_2" d="M1232.49 279.134H1232.47C1232.43 279.134 1232.39 279.163 1232.39 279.197V280.856C1232.39 280.89 1232.43 280.918 1232.47 280.918H1232.49C1232.54 280.918 1232.58 280.89 1232.58 280.856V279.197C1232.58 279.163 1232.54 279.134 1232.49 279.134Z" fill="white"/>
<path id="rect3951_2" d="M1233.67 280.033V280.018C1233.67 279.983 1233.63 279.955 1233.59 279.955H1231.38C1231.33 279.955 1231.3 279.983 1231.3 280.018V280.033C1231.3 280.068 1231.33 280.096 1231.38 280.096H1233.59C1233.63 280.096 1233.67 280.068 1233.67 280.033Z" fill="white"/>
</g>
<g id="g3953_2">
<path id="path3955_2" d="M1220.09 334.867C1220.09 335.474 1219.44 335.965 1218.63 335.965C1217.83 335.965 1217.17 335.474 1217.17 334.867C1217.17 334.261 1217.83 333.769 1218.63 333.769C1219.44 333.769 1220.09 334.261 1220.09 334.867Z" fill="#B3B3B3"/>
<path id="rect3957_2" d="M1218.64 333.955H1218.62C1218.57 333.955 1218.54 333.983 1218.54 334.018V335.676C1218.54 335.711 1218.57 335.739 1218.62 335.739H1218.64C1218.69 335.739 1218.72 335.711 1218.72 335.676V334.018C1218.72 333.983 1218.69 333.955 1218.64 333.955Z" fill="white"/>
<path id="rect3959_2" d="M1219.82 334.854V334.838C1219.82 334.803 1219.78 334.775 1219.73 334.775H1217.53C1217.48 334.775 1217.44 334.803 1217.44 334.838V334.854C1217.44 334.889 1217.48 334.917 1217.53 334.917H1219.73C1219.78 334.917 1219.82 334.889 1219.82 334.854Z" fill="white"/>
</g>
<g id="g3961_2">
<path id="path3963_2" d="M1233.64 334.64C1233.64 335.246 1232.99 335.738 1232.19 335.738C1231.38 335.738 1230.73 335.246 1230.73 334.64C1230.73 334.034 1231.38 333.542 1232.19 333.542C1232.99 333.542 1233.64 334.033 1233.64 334.64Z" fill="#B3B3B3"/>
<path id="rect3965_2" d="M1232.19 333.727H1232.17C1232.13 333.727 1232.09 333.755 1232.09 333.79V335.448C1232.09 335.483 1232.13 335.511 1232.17 335.511H1232.19C1232.24 335.511 1232.28 335.483 1232.28 335.448V333.79C1232.28 333.755 1232.24 333.727 1232.19 333.727Z" fill="white"/>
<path id="rect3967_2" d="M1233.37 334.626V334.61C1233.37 334.576 1233.33 334.548 1233.28 334.548H1231.08C1231.03 334.548 1231 334.576 1231 334.61V334.626C1231 334.661 1231.03 334.689 1231.08 334.689H1233.28C1233.33 334.689 1233.37 334.661 1233.37 334.626Z" fill="white"/>
</g>
</g>
</g>
</g>
<path id="Garage" d="M640.641 172.766C633.484 177.547 626.266 179.938 618.984 179.938C611.172 179.938 605.109 177.047 600.797 171.266C596.484 165.453 594.328 157.391 594.328 147.078C594.328 136.234 596.391 128.141 600.516 122.797C604.641 117.453 610.844 114.781 619.125 114.781C629.938 114.781 637.141 119.953 640.734 130.297L632.719 132.922C630.219 125.703 625.719 122.094 619.219 122.094C613.938 122.094 610.031 124.062 607.5 128C605 131.938 603.75 138.297 603.75 147.078C603.75 164.141 609.078 172.672 619.734 172.672C621.859 172.672 624.062 172.344 626.344 171.688C628.625 171.031 630.484 170.203 631.922 169.203V153.453H618.188V145.953H640.641V172.766ZM698.297 173.797C699.109 173.797 700.031 173.688 701.062 173.469V178.719C698.938 179.219 696.766 179.469 694.547 179.469C691.422 179.469 689.141 178.656 687.703 177.031C686.297 175.375 685.5 172.797 685.312 169.297H685.031C683 173.078 680.594 175.797 677.812 177.453C675.062 179.109 671.656 179.938 667.594 179.938C662.656 179.938 658.938 178.594 656.438 175.906C653.938 173.219 652.688 169.531 652.688 164.844C652.688 153.938 659.781 148.406 673.969 148.25L685.031 148.062V145.297C685.031 141.203 684.203 138.266 682.547 136.484C680.891 134.672 678.25 133.766 674.625 133.766C670.938 133.766 668.281 134.422 666.656 135.734C665.031 137.047 664.062 139.078 663.75 141.828L654.938 141.031C656.375 131.906 662.984 127.344 674.766 127.344C681.016 127.344 685.703 128.812 688.828 131.75C691.984 134.656 693.562 138.875 693.562 144.406V166.25C693.562 168.75 693.891 170.641 694.547 171.922C695.203 173.172 696.453 173.797 698.297 173.797ZM669.75 173.516C672.75 173.516 675.406 172.797 677.719 171.359C680.031 169.922 681.828 168 683.109 165.594C684.391 163.188 685.031 160.703 685.031 158.141V153.969L676.125 154.156C672.438 154.219 669.625 154.625 667.688 155.375C665.75 156.125 664.234 157.281 663.141 158.844C662.078 160.375 661.547 162.422 661.547 164.984C661.547 167.547 662.234 169.609 663.609 171.172C665.016 172.734 667.062 173.516 669.75 173.516ZM753.328 135.969C749.828 135.375 746.516 135.078 743.391 135.078C738.359 135.078 734.297 136.969 731.203 140.75C728.109 144.531 726.562 149.344 726.562 155.188V179H718.125V146.141C718.125 143.766 717.906 140.969 717.469 137.75C717.062 134.531 716.469 131.375 715.688 128.281H723.703C724.953 132.594 725.703 136.5 725.953 140H726.188C727.75 136.5 729.281 133.938 730.781 132.312C732.281 130.656 734.062 129.422 736.125 128.609C738.188 127.766 740.703 127.344 743.672 127.344C746.922 127.344 750.141 127.609 753.328 128.141V135.969ZM813.609 173.797C814.422 173.797 815.344 173.688 816.375 173.469V178.719C814.25 179.219 812.078 179.469 809.859 179.469C806.734 179.469 804.453 178.656 803.016 177.031C801.609 175.375 800.812 172.797 800.625 169.297H800.344C798.312 173.078 795.906 175.797 793.125 177.453C790.375 179.109 786.969 179.938 782.906 179.938C777.969 179.938 774.25 178.594 771.75 175.906C769.25 173.219 768 169.531 768 164.844C768 153.938 775.094 148.406 789.281 148.25L800.344 148.062V145.297C800.344 141.203 799.516 138.266 797.859 136.484C796.203 134.672 793.562 133.766 789.938 133.766C786.25 133.766 783.594 134.422 781.969 135.734C780.344 137.047 779.375 139.078 779.062 141.828L770.25 141.031C771.688 131.906 778.297 127.344 790.078 127.344C796.328 127.344 801.016 128.812 804.141 131.75C807.297 134.656 808.875 138.875 808.875 144.406V166.25C808.875 168.75 809.203 170.641 809.859 171.922C810.516 173.172 811.766 173.797 813.609 173.797ZM785.062 173.516C788.062 173.516 790.719 172.797 793.031 171.359C795.344 169.922 797.141 168 798.422 165.594C799.703 163.188 800.344 160.703 800.344 158.141V153.969L791.438 154.156C787.75 154.219 784.938 154.625 783 155.375C781.062 156.125 779.547 157.281 778.453 158.844C777.391 160.375 776.859 162.422 776.859 164.984C776.859 167.547 777.547 169.609 778.922 171.172C780.328 172.734 782.375 173.516 785.062 173.516ZM848.484 198.875C843.234 198.875 839.016 197.797 835.828 195.641C832.641 193.484 830.609 190.391 829.734 186.359L838.359 185.188C838.891 187.531 840.031 189.328 841.781 190.578C843.562 191.859 845.891 192.5 848.766 192.5C856.516 192.5 860.391 187.578 860.391 177.734V168.641H860.297C858.766 171.859 856.641 174.297 853.922 175.953C851.203 177.609 847.969 178.438 844.219 178.438C838.031 178.438 833.5 176.422 830.625 172.391C827.781 168.328 826.359 161.953 826.359 153.266C826.359 144.422 827.891 137.922 830.953 133.766C834.016 129.578 838.734 127.484 845.109 127.484C848.641 127.484 851.703 128.312 854.297 129.969C856.922 131.594 858.938 133.922 860.344 136.953H860.484C860.484 136.016 860.547 134.438 860.672 132.219C860.797 129.969 860.922 128.656 861.047 128.281H869.062C868.875 129.969 868.781 133.469 868.781 138.781V177.5C868.781 184.594 867.125 189.922 863.812 193.484C860.5 197.078 855.391 198.875 848.484 198.875ZM860.391 153.172C860.391 147.141 859.219 142.406 856.875 138.969C854.531 135.5 851.312 133.766 847.219 133.766C842.938 133.766 839.844 135.266 837.938 138.266C836.031 141.234 835.078 146.203 835.078 153.172C835.078 157.891 835.469 161.625 836.25 164.375C837.062 167.094 838.312 169.078 840 170.328C841.688 171.578 844.047 172.203 847.078 172.203C849.734 172.203 852.062 171.469 854.062 170C856.094 168.5 857.656 166.328 858.75 163.484C859.844 160.609 860.391 157.172 860.391 153.172ZM892.406 155.422C892.406 161.109 893.656 165.562 896.156 168.781C898.688 172 902.141 173.609 906.516 173.609C909.734 173.609 912.547 172.922 914.953 171.547C917.391 170.141 919.016 168.234 919.828 165.828L927.234 167.938C925.859 171.812 923.328 174.781 919.641 176.844C915.984 178.906 911.609 179.938 906.516 179.938C899.141 179.938 893.469 177.641 889.5 173.047C885.531 168.453 883.547 161.875 883.547 153.312C883.547 144.969 885.484 138.562 889.359 134.094C893.266 129.594 898.891 127.344 906.234 127.344C913.578 127.344 919.141 129.578 922.922 134.047C926.703 138.516 928.594 145.266 928.594 154.297V155.422H892.406ZM906.328 133.578C902.141 133.578 898.828 134.953 896.391 137.703C893.953 140.422 892.656 144.172 892.5 148.953H919.875C919 138.703 914.484 133.578 906.328 133.578Z" fill="black"/>
<path id="Sale" d="M615.062 165.656C615.062 171.406 612.953 175.891 608.734 179.109C604.547 182.328 598.562 183.938 590.781 183.938C576.5 183.938 568.203 178.344 565.891 167.156L574.562 165.422C575.438 169.453 577.25 172.391 580 174.234C582.75 176.047 586.422 176.953 591.016 176.953C595.984 176.953 599.75 175.984 602.312 174.047C604.906 172.109 606.203 169.359 606.203 165.797C606.203 163.609 605.688 161.828 604.656 160.453C603.656 159.078 602.328 157.953 600.672 157.078C599.016 156.203 597.141 155.5 595.047 154.969C592.984 154.406 590.891 153.859 588.766 153.328C583.734 152.016 580.141 150.844 577.984 149.812C575.859 148.781 574.156 147.609 572.875 146.297C571.594 144.953 570.625 143.422 569.969 141.703C569.312 139.984 568.984 137.969 568.984 135.656C568.984 130.25 570.875 126.094 574.656 123.188C578.469 120.25 583.922 118.781 591.016 118.781C597.641 118.781 602.703 119.938 606.203 122.25C609.703 124.562 612.141 128.469 613.516 133.969L604.703 135.516C603.953 132.016 602.453 129.484 600.203 127.922C597.953 126.328 594.875 125.531 590.969 125.531C582.125 125.531 577.703 128.859 577.703 135.516C577.703 137.391 578.109 138.922 578.922 140.109C579.766 141.266 580.891 142.234 582.297 143.016C583.734 143.766 585.391 144.391 587.266 144.891C589.172 145.391 591.203 145.922 593.359 146.484C597.703 147.578 600.828 148.5 602.734 149.25C604.641 149.969 606.328 150.797 607.797 151.734C609.297 152.672 610.578 153.781 611.641 155.062C612.703 156.344 613.531 157.844 614.125 159.562C614.75 161.281 615.062 163.312 615.062 165.656ZM671.453 177.797C672.266 177.797 673.188 177.688 674.219 177.469V182.719C672.094 183.219 669.922 183.469 667.703 183.469C664.578 183.469 662.297 182.656 660.859 181.031C659.453 179.375 658.656 176.797 658.469 173.297H658.188C656.156 177.078 653.75 179.797 650.969 181.453C648.219 183.109 644.812 183.938 640.75 183.938C635.812 183.938 632.094 182.594 629.594 179.906C627.094 177.219 625.844 173.531 625.844 168.844C625.844 157.938 632.938 152.406 647.125 152.25L658.188 152.062V149.297C658.188 145.203 657.359 142.266 655.703 140.484C654.047 138.672 651.406 137.766 647.781 137.766C644.094 137.766 641.438 138.422 639.812 139.734C638.188 141.047 637.219 143.078 636.906 145.828L628.094 145.031C629.531 135.906 636.141 131.344 647.922 131.344C654.172 131.344 658.859 132.812 661.984 135.75C665.141 138.656 666.719 142.875 666.719 148.406V170.25C666.719 172.75 667.047 174.641 667.703 175.922C668.359 177.172 669.609 177.797 671.453 177.797ZM642.906 177.516C645.906 177.516 648.562 176.797 650.875 175.359C653.188 173.922 654.984 172 656.266 169.594C657.547 167.188 658.188 164.703 658.188 162.141V157.969L649.281 158.156C645.594 158.219 642.781 158.625 640.844 159.375C638.906 160.125 637.391 161.281 636.297 162.844C635.234 164.375 634.703 166.422 634.703 168.984C634.703 171.547 635.391 173.609 636.766 175.172C638.172 176.734 640.219 177.516 642.906 177.516ZM712 176.344H729.812V183H683.781V176.344H703.562V120.094H690.016V113.438H712V176.344ZM750.25 159.422C750.25 165.109 751.5 169.562 754 172.781C756.531 176 759.984 177.609 764.359 177.609C767.578 177.609 770.391 176.922 772.797 175.547C775.234 174.141 776.859 172.234 777.672 169.828L785.078 171.938C783.703 175.812 781.172 178.781 777.484 180.844C773.828 182.906 769.453 183.938 764.359 183.938C756.984 183.938 751.312 181.641 747.344 177.047C743.375 172.453 741.391 165.875 741.391 157.312C741.391 148.969 743.328 142.562 747.203 138.094C751.109 133.594 756.734 131.344 764.078 131.344C771.422 131.344 776.984 133.578 780.766 138.047C784.547 142.516 786.438 149.266 786.438 158.297V159.422H750.25ZM764.172 137.578C759.984 137.578 756.672 138.953 754.234 141.703C751.797 144.422 750.5 148.172 750.344 152.953H777.719C776.844 142.703 772.328 137.578 764.172 137.578Z" fill="black"/>
</g>
<defs>
<filter id="filter0_f" x="159.708" y="356.403" width="146.592" height="64.6548" filterUnits="userSpaceOnUse" color-interpolation-filters="sRGB">
<feFlood flood-opacity="0" result="BackgroundImageFix"/>
<feBlend mode="normal" in="SourceGraphic" in2="BackgroundImageFix" result="shape"/>
<feGaussianBlur stdDeviation="9.70937" result="effect1_foregroundBlur"/>
</filter>
<filter id="filter1_f" x="220.879" y="383.478" width="34.8123" height="9.88131" filterUnits="userSpaceOnUse" color-interpolation-filters="sRGB">
<feFlood flood-opacity="0" result="BackgroundImageFix"/>
<feBlend mode="normal" in="SourceGraphic" in2="BackgroundImageFix" result="shape"/>
<feGaussianBlur stdDeviation="0.4234" result="effect1_foregroundBlur"/>
</filter>
<filter id="filter2_f" x="220.879" y="391.35" width="34.8123" height="9.88133" filterUnits="userSpaceOnUse" color-interpolation-filters="sRGB">
<feFlood flood-opacity="0" result="BackgroundImageFix"/>
<feBlend mode="normal" in="SourceGraphic" in2="BackgroundImageFix" result="shape"/>
<feGaussianBlur stdDeviation="0.4234" result="effect1_foregroundBlur"/>
</filter>
<filter id="filter3_f" x="187.047" y="232.429" width="108.036" height="39.864" filterUnits="userSpaceOnUse" color-interpolation-filters="sRGB">
<feFlood flood-opacity="0" result="BackgroundImageFix"/>
<feBlend mode="normal" in="SourceGraphic" in2="BackgroundImageFix" result="shape"/>
<feGaussianBlur stdDeviation="0.635473" result="effect1_foregroundBlur"/>
</filter>
<filter id="filter4_f" x="1150.25" y="405.4" width="141.509" height="63.1697" filterUnits="userSpaceOnUse" color-interpolation-filters="sRGB">
<feFlood flood-opacity="0" result="BackgroundImageFix"/>
<feBlend mode="normal" in="SourceGraphic" in2="BackgroundImageFix" result="shape"/>
<feGaussianBlur stdDeviation="9.70937" result="effect1_foregroundBlur"/>
</filter>
<filter id="filter5_f" x="1209.41" y="431.99" width="33.251" height="9.41056" filterUnits="userSpaceOnUse" color-interpolation-filters="sRGB">
<feFlood flood-opacity="0" result="BackgroundImageFix"/>
<feBlend mode="normal" in="SourceGraphic" in2="BackgroundImageFix" result="shape"/>
<feGaussianBlur stdDeviation="0.4234" result="effect1_foregroundBlur"/>
</filter>
<filter id="filter6_f" x="1209.41" y="439.41" width="33.251" height="9.41056" filterUnits="userSpaceOnUse" color-interpolation-filters="sRGB">
<feFlood flood-opacity="0" result="BackgroundImageFix"/>
<feBlend mode="normal" in="SourceGraphic" in2="BackgroundImageFix" result="shape"/>
<feGaussianBlur stdDeviation="0.4234" result="effect1_foregroundBlur"/>
</filter>
<filter id="filter7_f" x="1167.28" y="291.953" width="122.481" height="29.3389" filterUnits="userSpaceOnUse" color-interpolation-filters="sRGB">
<feFlood flood-opacity="0" result="BackgroundImageFix"/>
<feBlend mode="normal" in="SourceGraphic" in2="BackgroundImageFix" result="shape"/>
<feGaussianBlur stdDeviation="0.453146" result="effect1_foregroundBlur"/>
</filter>
<linearGradient id="paint0_linear" x1="228.827" y1="291.597" x2="245.372" y2="291.059" gradientUnits="userSpaceOnUse">
<stop stop-color="#2B1100"/>
<stop offset="1" stop-color="#D45500"/>
</linearGradient>
<linearGradient id="paint1_linear" x1="238.684" y1="220.912" x2="238.684" y2="285.508" gradientUnits="userSpaceOnUse">
<stop stop-color="#0B280B"/>
<stop offset="1" stop-color="#217821"/>
</linearGradient>
<linearGradient id="paint2_linear" x1="1217.03" y1="345.439" x2="1232.79" y2="344.921" gradientUnits="userSpaceOnUse">
<stop stop-color="#2B1100"/>
<stop offset="1" stop-color="#D45500"/>
</linearGradient>
<linearGradient id="paint3_linear" x1="1231.22" y1="345.954" x2="1230.09" y2="271.953" gradientUnits="userSpaceOnUse">
<stop stop-color="#2B0000"/>
<stop offset="1" stop-color="#FF2A2A"/>
</linearGradient>
<clipPath id="clip0">
<rect width="202" height="213" fill="white" transform="translate(1120 261)"/>
</clipPath>
</defs>
</svg>
