<svg width="1440" height="1024" viewBox="0 0 1440 1024" fill="none" xmlns="http://www.w3.org/2000/svg">
<g id="Garage-sale-animation">
<rect width="1440" height="1024" fill="white"/>
<g id="Sale 1">
<g id="layer1">
<g id="g4892">
<g id="rect3094" filter="url(#filter0_f)">
<path d="M277.813 224.822H188.194C183.186 224.822 179.126 226.876 179.126 229.409V246.053C179.126 248.586 183.186 250.64 188.194 250.64H277.813C282.821 250.64 286.881 248.586 286.881 246.053V229.409C286.881 226.876 282.821 224.822 277.813 224.822Z" fill="#333333"/>
</g>
<g id="path3918" filter="url(#filter1_f)">
<path d="M254.845 241.512C254.845 236.99 247.431 233.325 238.285 233.325C229.14 233.325 221.726 236.99 221.726 241.512" fill="#005500"/>
</g>
<path id="path3890" d="M271.357 198.798C271.665 198.803 271.968 198.82 272.269 198.846C262.595 199.058 251.147 209.989 245.486 225.059C243.225 231.079 242.2 236.936 242.29 242.074H235.16C235.395 236.193 237.45 229.221 241.378 222.19C249.194 208.196 261.811 198.627 271.356 198.798L271.357 198.798Z" fill="#0B280B"/>
<g id="g3069">
<path id="rect2995" d="M238.048 51.0034H237.242C232.354 51.0034 228.391 54.5027 228.391 58.8192V234.942C228.391 239.259 232.354 242.758 237.242 242.758H238.048C242.936 242.758 246.899 239.259 246.899 234.942V58.8192C246.899 54.5027 242.936 51.0034 238.048 51.0034Z" fill="url(#paint0_linear)"/>
<g id="g3033" opacity="0.1">
<path id="path3025" opacity="0.1" d="M245.367 139.241C245.367 166.149 244.203 187.962 242.768 187.962C241.332 187.962 240.168 166.149 240.168 139.241C240.168 112.334 241.332 90.521 242.768 90.521C244.203 90.521 245.367 112.334 245.367 139.241Z" fill="#D45500"/>
<path id="path3029" opacity="0.1" d="M244.792 139.24C244.792 162.134 243.886 180.692 242.768 180.692C241.65 180.692 240.744 162.134 240.744 139.24C240.744 116.346 241.65 97.7877 242.768 97.7877C243.886 97.7877 244.792 116.346 244.792 139.24Z" fill="#FF6600"/>
<path id="path3027" opacity="0.1" d="M244.419 139.24C244.419 157.899 243.68 173.025 242.769 173.025C241.858 173.025 241.12 157.899 241.12 139.24C241.12 120.581 241.858 105.455 242.769 105.455C243.68 105.455 244.419 120.581 244.419 139.24Z" fill="#552200"/>
<path id="path3031" opacity="0.1" d="M244.019 139.24C244.019 153.376 243.46 164.835 242.77 164.835C242.08 164.835 241.52 153.376 241.52 139.24C241.52 125.104 242.08 113.645 242.77 113.645C243.46 113.645 244.019 125.104 244.019 139.24Z" fill="#FFB380"/>
</g>
<g id="g3039" opacity="0.1">
<path id="path3041" opacity="0.1" d="M234.497 190.568C234.497 217.475 233.333 239.288 231.898 239.288C230.462 239.288 229.298 217.475 229.298 190.568C229.298 163.66 230.462 141.847 231.898 141.847C233.333 141.847 234.497 163.66 234.497 190.568Z" fill="#D45500"/>
<path id="path3043" opacity="0.1" d="M233.922 190.567C233.922 213.46 233.016 232.019 231.898 232.019C230.78 232.019 229.874 213.46 229.874 190.567C229.874 167.673 230.78 149.114 231.898 149.114C233.016 149.114 233.922 167.673 233.922 190.567Z" fill="#FF6600"/>
<path id="path3045" opacity="0.1" d="M233.549 190.566C233.549 209.225 232.81 224.352 231.899 224.352C230.988 224.352 230.25 209.225 230.25 190.566C230.25 171.907 230.988 156.781 231.899 156.781C232.81 156.781 233.549 171.907 233.549 190.566Z" fill="#552200"/>
<path id="path3047" opacity="0.1" d="M233.149 190.566C233.149 204.702 232.59 216.161 231.9 216.161C231.209 216.161 230.65 204.702 230.65 190.566C230.65 176.431 231.209 164.972 231.9 164.972C232.59 164.972 233.149 176.431 233.149 190.566Z" fill="#FFB380"/>
</g>
<g id="g3049" opacity="0.1">
<path id="path3051" opacity="0.1" d="M238.28 101.268C238.28 128.176 237.117 149.989 235.681 149.989C234.245 149.989 233.082 128.176 233.082 101.268C233.082 74.3607 234.245 52.5479 235.681 52.5479C237.117 52.5479 238.28 74.3607 238.28 101.268Z" fill="#D45500"/>
<path id="path3053" opacity="0.1" d="M237.705 101.267C237.705 124.161 236.799 142.719 235.681 142.719C234.563 142.719 233.657 124.161 233.657 101.267C233.657 78.3734 234.563 59.8146 235.681 59.8146C236.799 59.8146 237.705 78.3734 237.705 101.267Z" fill="#FF6600"/>
<path id="path3055" opacity="0.1" d="M237.332 101.267C237.332 119.926 236.593 135.052 235.682 135.052C234.771 135.052 234.033 119.926 234.033 101.267C234.033 82.6076 234.771 67.4814 235.682 67.4814C236.593 67.4814 237.332 82.6076 237.332 101.267Z" fill="#552200"/>
<path id="path3057" opacity="0.1" d="M236.933 101.267C236.933 115.403 236.373 126.862 235.683 126.862C234.993 126.862 234.433 115.403 234.433 101.267C234.433 87.1313 234.993 75.6722 235.683 75.6722C236.373 75.6722 236.933 87.1313 236.933 101.267Z" fill="#FFB380"/>
</g>
<g id="g3059" opacity="0.1">
<path id="path3061" opacity="0.1" d="M245.367 207.468C245.367 222.046 244.203 233.863 242.768 233.863C241.332 233.863 240.168 222.046 240.168 207.468C240.168 192.891 241.332 181.074 242.768 181.074C244.203 181.074 245.367 192.891 245.367 207.468Z" fill="#D45500"/>
<path id="path3063" opacity="0.1" d="M244.792 207.468C244.792 219.87 243.886 229.925 242.768 229.925C241.65 229.925 240.744 219.87 240.744 207.468C240.744 195.065 241.65 185.011 242.768 185.011C243.886 185.011 244.792 195.065 244.792 207.468Z" fill="#FF6600"/>
<path id="path3065" opacity="0.1" d="M244.419 207.468C244.419 217.576 243.68 225.771 242.769 225.771C241.858 225.771 241.12 217.576 241.12 207.468C241.12 197.359 241.858 189.164 242.769 189.164C243.68 189.164 244.419 197.359 244.419 207.468Z" fill="#552200"/>
<path id="path3067" opacity="0.1" d="M244.019 207.468C244.019 215.126 243.46 221.334 242.77 221.334C242.08 221.334 241.52 215.126 241.52 207.468C241.52 199.81 242.08 193.602 242.77 193.602C243.46 193.602 244.019 199.81 244.019 207.468Z" fill="#FFB380"/>
</g>
</g>
<path id="rect2985" d="M320.397 68.2476H161.813C157.639 68.2476 154.256 70.8203 154.256 73.994V128.188C154.256 131.362 157.639 133.935 161.813 133.935H320.397C324.571 133.935 327.954 131.362 327.954 128.188V73.994C327.954 70.8203 324.571 68.2476 320.397 68.2476Z" fill="url(#paint1_linear)"/>
<path id="path3876" d="M196.415 196.828C196.107 196.833 195.805 196.85 195.503 196.876C205.177 197.088 216.625 208.019 222.286 223.089C224.547 229.109 225.572 234.966 225.483 240.104H232.612C232.377 234.222 230.322 227.251 226.395 220.22C218.578 206.226 205.961 196.657 196.416 196.828L196.415 196.828Z" fill="#0B280B"/>
<path id="path3884" d="M196.707 212.574C196.399 212.578 196.097 212.589 195.795 212.606C205.469 212.747 216.917 219.978 222.578 229.947C224.839 233.929 225.864 237.804 225.775 241.203H232.904C232.669 237.312 230.614 232.7 226.687 228.048C218.87 218.791 206.253 212.462 196.708 212.574L196.707 212.574Z" fill="#005500"/>
<path id="path3886" d="M207.051 214.544C206.743 214.548 206.44 214.559 206.139 214.576C215.813 214.717 227.261 221.948 232.921 231.917C235.182 235.899 236.208 239.774 236.118 243.173H243.248C243.013 239.282 240.958 234.67 237.03 230.019C229.214 220.761 216.597 214.432 207.052 214.544L207.051 214.544Z" fill="#002B00"/>
<path id="path3888" d="M279.694 198.146C280.002 198.151 280.305 198.168 280.606 198.194C270.933 198.406 259.485 209.337 253.824 224.407C251.563 230.427 250.537 236.284 250.627 241.422H243.498C243.733 235.54 245.788 228.569 249.715 221.538C257.531 207.544 270.149 197.975 279.694 198.146L279.694 198.146Z" fill="#005500"/>
<path id="path3892" d="M277.395 218.692C277.703 218.695 278.006 218.705 278.307 218.72C268.634 218.842 257.186 225.135 251.525 233.809C249.264 237.275 248.238 240.646 248.328 243.604H241.199C241.434 240.218 243.489 236.205 247.416 232.157C255.233 224.102 267.85 218.593 277.395 218.692L277.395 218.692Z" fill="#008000"/>
<path id="path3894" d="M201.013 218.04C200.705 218.043 200.402 218.053 200.101 218.068C209.774 218.19 221.222 224.483 226.883 233.157C229.144 236.623 230.17 239.994 230.08 242.952H237.209C236.974 239.566 234.919 235.553 230.992 231.505C223.175 223.449 210.558 217.941 201.013 218.04L201.013 218.04Z" fill="#165016"/>
<path id="path3896" d="M217.942 235.965C217.839 235.966 217.738 235.969 217.638 235.972C220.866 236.005 224.687 237.714 226.577 240.071C227.331 241.012 227.674 241.928 227.644 242.732H230.023C229.945 241.812 229.259 240.722 227.948 239.622C225.339 237.434 221.128 235.938 217.942 235.964L217.942 235.965Z" fill="#1F241C"/>
<path id="path3898" d="M244.668 236.187C244.77 236.188 244.871 236.191 244.972 236.194C241.743 236.227 237.922 237.936 236.033 240.293C235.278 241.234 234.936 242.15 234.966 242.954H232.586C232.665 242.034 233.351 240.944 234.662 239.844C237.271 237.656 241.482 236.159 244.668 236.186L244.668 236.187Z" fill="#008000"/>
<g id="path3900" filter="url(#filter2_f)">
<path d="M254.845 241.197C254.845 245.719 247.431 249.385 238.285 249.385C229.14 249.385 221.726 245.719 221.726 241.197" fill="#005500"/>
</g>
<g id="g3940">
<path id="path3932" d="M232.253 71.3885C232.253 72.0318 231.567 72.5534 230.721 72.5534C229.875 72.5534 229.189 72.0319 229.189 71.3885C229.189 70.7451 229.875 70.2235 230.721 70.2235C231.567 70.2235 232.253 70.7451 232.253 71.3885Z" fill="#B3B3B3"/>
<path id="rect3936" d="M230.729 70.4202H230.707C230.658 70.4202 230.619 70.45 230.619 70.4868V72.2463C230.619 72.2831 230.658 72.313 230.707 72.313H230.729C230.777 72.313 230.817 72.2831 230.817 72.2463V70.4868C230.817 70.45 230.777 70.4202 230.729 70.4202Z" fill="white"/>
<path id="rect3938" d="M231.962 71.3741V71.3572C231.962 71.3204 231.923 71.2906 231.875 71.2906H229.561C229.513 71.2906 229.474 71.3204 229.474 71.3572V71.3741C229.474 71.4109 229.513 71.4408 229.561 71.4408H231.875C231.923 71.4408 231.962 71.4109 231.962 71.3741Z" fill="white"/>
</g>
<g id="g3945">
<path id="path3947" d="M246.591 71.2081C246.591 71.8515 245.906 72.3731 245.06 72.3731C244.214 72.3731 243.528 71.8516 243.528 71.2081C243.528 70.5648 244.214 70.0432 245.06 70.0432C245.906 70.0432 246.591 70.5647 246.591 71.2081Z" fill="#B3B3B3"/>
<path id="rect3949" d="M245.068 70.2399H245.046C244.997 70.2399 244.958 70.2697 244.958 70.3065V72.066C244.958 72.1028 244.997 72.1326 245.046 72.1326H245.068C245.116 72.1326 245.156 72.1028 245.156 72.066V70.3065C245.156 70.2697 245.116 70.2399 245.068 70.2399Z" fill="white"/>
<path id="rect3951" d="M246.301 71.1938V71.1768C246.301 71.14 246.262 71.1102 246.214 71.1102H243.9C243.852 71.1102 243.812 71.14 243.812 71.1768V71.1938C243.812 71.2306 243.852 71.2604 243.9 71.2604H246.214C246.262 71.2604 246.301 71.2306 246.301 71.1938Z" fill="white"/>
</g>
<g id="g3953">
<path id="path3955" d="M232.052 129.38C232.052 130.023 231.366 130.545 230.52 130.545C229.674 130.545 228.988 130.023 228.988 129.38C228.988 128.737 229.674 128.215 230.52 128.215C231.366 128.215 232.052 128.737 232.052 129.38Z" fill="#B3B3B3"/>
<path id="rect3957" d="M230.528 128.412H230.506C230.458 128.412 230.418 128.442 230.418 128.478V130.238C230.418 130.275 230.458 130.304 230.506 130.304H230.528C230.577 130.304 230.616 130.275 230.616 130.238V128.478C230.616 128.442 230.577 128.412 230.528 128.412Z" fill="white"/>
<path id="rect3959" d="M231.762 129.366V129.349C231.762 129.312 231.722 129.282 231.674 129.282H229.36C229.312 129.282 229.273 129.312 229.273 129.349V129.366C229.273 129.402 229.312 129.432 229.36 129.432H231.674C231.722 129.432 231.762 129.402 231.762 129.366Z" fill="white"/>
</g>
<g id="g3961">
<path id="path3963" d="M246.263 129.13C246.263 129.774 245.577 130.295 244.731 130.295C243.886 130.295 243.2 129.774 243.2 129.13C243.2 128.487 243.886 127.965 244.731 127.965C245.577 127.965 246.263 128.487 246.263 129.13Z" fill="#B3B3B3"/>
<path id="rect3965" d="M244.74 128.162H244.718C244.669 128.162 244.63 128.192 244.63 128.229V129.988C244.63 130.025 244.669 130.055 244.718 130.055H244.74C244.788 130.055 244.827 130.025 244.827 129.988V128.229C244.827 128.192 244.788 128.162 244.74 128.162Z" fill="white"/>
<path id="rect3967" d="M245.973 129.116V129.099C245.973 129.062 245.934 129.032 245.886 129.032H243.572C243.524 129.032 243.484 129.062 243.484 129.099V129.116C243.484 129.153 243.524 129.182 243.572 129.182H245.886C245.934 129.182 245.973 129.153 245.973 129.116Z" fill="white"/>
</g>
<g id="g4880">
<g id="text4342" filter="url(#filter3_f)">
<path id="path4872" d="M202.664 84.2958C202.789 84.2208 203.145 83.8836 203.729 83.284C204.105 82.8944 204.606 82.6995 205.233 82.6995C205.379 82.6995 205.964 82.7519 206.987 82.8569C207.196 83.0068 207.352 83.3216 207.457 83.8012L209.148 91.423C209.232 91.8277 209.273 92.0675 209.273 92.1425C209.273 92.4273 209.164 92.6146 208.944 92.7045C208.725 92.7944 208.146 92.8395 207.206 92.8394C206.141 92.8395 205.452 92.742 205.139 92.5472C204.825 92.3523 204.23 91.5429 203.353 90.1189C201.495 87.1062 199.835 85.5998 198.373 85.5998C197.329 85.5998 196.807 86.1244 196.807 87.1736C196.807 88.4777 198.383 91.0408 201.536 94.8629C205.149 99.2696 207.503 102.458 208.6 104.429C209.696 106.401 210.244 108.608 210.244 111.051C210.244 113.944 209.294 116.162 207.394 117.706C205.493 119.25 203.353 120.022 200.973 120.022C199.469 120.022 198.018 119.714 196.619 119.1C196.076 118.86 195.648 118.74 195.335 118.74C195.063 118.74 194.844 118.882 194.677 119.167C194.343 119.737 193.528 120.022 192.234 120.022C191.733 120.022 191.393 119.965 191.216 119.853C191.038 119.741 190.908 119.444 190.824 118.965L189.258 111.478C189.049 110.519 188.945 110.009 188.945 109.949C188.945 109.514 189.498 109.297 190.605 109.297C192.108 109.297 192.996 109.439 193.267 109.724C193.539 110.009 193.925 110.661 194.426 111.68C196.264 115.322 198.112 117.144 199.97 117.144C200.659 117.144 201.218 116.964 201.646 116.604C202.074 116.244 202.288 115.795 202.288 115.255C202.288 114.311 201.813 113.19 200.863 111.894C199.913 110.597 198.749 109.155 197.371 107.566C194.071 103.759 191.738 100.72 190.37 98.4489C189.002 96.1781 188.318 93.8587 188.318 91.4904C188.318 88.8224 189.133 86.694 190.761 85.1052C192.39 83.5163 194.384 82.722 196.744 82.722C198.373 82.722 200.346 83.2466 202.664 84.2958L202.664 84.2958Z" fill="black"/>
<path id="path4874" d="M227.037 111.859H219.207L218.862 113.927C218.862 113.972 218.841 114.04 218.799 114.13C218.632 114.564 218.549 114.954 218.549 115.299C218.549 115.838 219.04 116.295 220.021 116.67C220.543 116.865 220.867 117.067 220.992 117.277C221.117 117.487 221.18 117.832 221.18 118.311C221.18 118.926 221.133 119.297 221.039 119.424C220.945 119.552 220.72 119.615 220.365 119.615H212.096C211.637 119.615 211.407 119.271 211.407 118.581C211.407 117.757 211.773 117.09 212.504 116.58C213.193 116.116 213.589 115.621 213.694 115.096L219.488 88.633C219.593 88.2283 219.645 87.8761 219.645 87.5763C219.645 87.1117 219.196 86.6995 218.298 86.3397C217.881 86.1599 217.672 85.7627 217.672 85.1481C217.672 84.3238 217.734 83.8142 217.86 83.6193C217.985 83.4245 218.319 83.327 218.862 83.327H230.827C231.558 83.327 232.07 83.5744 232.362 84.0689C232.654 84.5636 232.947 85.6428 233.239 87.3066C233.364 87.9511 233.489 88.5881 233.615 89.2176L238.752 113.926C239.002 115.125 239.618 116.039 240.6 116.669C240.871 116.834 241.049 116.965 241.132 117.062C241.216 117.16 241.257 117.456 241.257 117.951C241.257 118.715 241.184 119.183 241.038 119.356C240.892 119.528 240.579 119.614 240.099 119.614H226.16C225.742 119.614 225.534 119.33 225.534 118.76C225.534 118.041 225.586 117.591 225.69 117.411C225.795 117.231 226.097 117.021 226.599 116.781C227.329 116.452 227.695 116.032 227.695 115.522C227.695 114.998 227.476 113.776 227.037 111.858L227.037 111.859ZM223.279 91.8045L219.802 109.274H226.693L223.279 91.8045Z" fill="black"/>
<path id="path4876" d="M256.987 117.075H258.772C259.691 117.075 260.37 116.813 260.809 116.288C261.247 115.763 261.821 114.549 262.531 112.646C262.782 111.911 263.085 111.465 263.44 111.308C263.795 111.151 264.4 111.072 265.256 111.072C266.196 111.072 266.802 111.128 267.073 111.241C267.344 111.353 267.48 111.559 267.48 111.859C267.48 112.069 267.428 112.406 267.324 112.871L266.227 118.244C266.102 118.799 265.94 119.166 265.742 119.346C265.543 119.526 265.141 119.616 264.536 119.616H243.926C243.049 119.616 242.61 119.226 242.61 118.447C242.61 117.847 242.668 117.461 242.783 117.289C242.897 117.116 243.143 116.985 243.519 116.895C244.709 116.625 245.304 115.838 245.304 114.534V87.8245C245.304 87.27 244.928 86.8728 244.176 86.6329C243.529 86.4381 243.132 86.2208 242.986 85.9809C242.84 85.7411 242.767 85.3439 242.767 84.7893C242.767 84.1298 242.83 83.7214 242.955 83.564C243.08 83.4066 243.414 83.328 243.957 83.3279H258.397C258.94 83.328 259.31 83.4216 259.509 83.6089C259.707 83.7963 259.806 84.3022 259.806 85.1266C259.806 85.6213 259.738 85.9547 259.603 86.1271C259.467 86.2995 259.117 86.4531 258.553 86.588C257.509 86.8428 256.987 87.3375 256.987 88.0719L256.987 117.075Z" fill="black"/>
<path id="path4878" d="M283.163 86.0884V98.9262H285.293C285.878 98.9262 286.306 98.8363 286.577 98.6564C286.848 98.4765 287.057 98.0868 287.203 97.4873C287.454 96.4231 287.658 95.786 287.814 95.5762C287.971 95.3663 288.216 95.2614 288.55 95.2614C290.2 95.2614 291.134 95.3102 291.354 95.4075C291.573 95.505 291.683 95.8835 291.683 96.5429V104.03C291.683 104.495 291.578 104.798 291.369 104.94C291.161 105.083 290.513 105.154 289.427 105.154C288.717 105.154 288.242 105.06 288.002 104.873C287.762 104.686 287.527 104.157 287.298 103.288C287.068 102.494 286.843 102.006 286.624 101.826C286.405 101.647 286.066 101.557 285.606 101.557H283.163V117.047H284.823C285.846 117.047 286.551 116.841 286.937 116.429C287.324 116.017 287.945 114.829 288.801 112.865C289.156 112.041 289.522 111.501 289.897 111.247C290.273 110.992 290.931 110.865 291.871 110.865C293.165 110.865 293.813 111.164 293.813 111.764C293.813 111.944 293.771 112.206 293.687 112.551L292.529 117.654C292.32 118.584 292.147 119.142 292.012 119.329C291.876 119.517 291.453 119.61 290.743 119.61H269.851C269.329 119.61 268.995 119.524 268.849 119.352C268.703 119.179 268.63 118.681 268.63 117.857C268.63 117.332 269.006 116.95 269.758 116.71C270.906 116.365 271.48 115.893 271.48 115.294V87.2575C271.459 86.9727 270.99 86.6879 270.071 86.4031C269.444 86.2083 269.074 86.0209 268.959 85.841C268.844 85.6612 268.787 85.2265 268.787 84.537C268.787 83.9525 268.849 83.604 268.975 83.4915C269.1 83.3791 269.465 83.3229 270.071 83.3229H290.054C290.555 83.3229 290.92 83.3829 291.15 83.5028C291.38 83.6227 291.557 83.9075 291.682 84.3571L293.28 90.1578C293.363 90.4576 293.405 90.6599 293.405 90.7648C293.405 91.1696 292.904 91.3719 291.902 91.3719C290.774 91.3719 290.022 91.2782 289.647 91.0908C289.271 90.9035 288.905 90.4351 288.55 89.6856C287.903 88.3367 287.344 87.3998 286.874 86.8752C286.405 86.3507 285.877 86.0884 285.293 86.0883L283.163 86.0884Z" fill="black"/>
</g>
<g id="text4336">
<path id="path4863" d="M202.664 84.2958C202.789 84.2208 203.145 83.8836 203.729 83.284C204.105 82.8944 204.606 82.6995 205.233 82.6995C205.379 82.6995 205.964 82.7519 206.987 82.8569C207.196 83.0068 207.352 83.3216 207.457 83.8012L209.148 91.423C209.232 91.8277 209.273 92.0675 209.273 92.1425C209.273 92.4273 209.164 92.6146 208.944 92.7045C208.725 92.7944 208.146 92.8395 207.206 92.8394C206.141 92.8395 205.452 92.742 205.139 92.5472C204.825 92.3523 204.23 91.5429 203.353 90.1189C201.495 87.1062 199.835 85.5998 198.373 85.5998C197.329 85.5998 196.807 86.1244 196.807 87.1736C196.807 88.4777 198.383 91.0408 201.536 94.8629C205.149 99.2696 207.503 102.458 208.6 104.429C209.696 106.401 210.244 108.608 210.244 111.051C210.244 113.944 209.294 116.162 207.394 117.706C205.493 119.25 203.353 120.022 200.973 120.022C199.469 120.022 198.018 119.714 196.619 119.1C196.076 118.86 195.648 118.74 195.335 118.74C195.063 118.74 194.844 118.882 194.677 119.167C194.343 119.737 193.528 120.022 192.234 120.022C191.733 120.022 191.393 119.965 191.216 119.853C191.038 119.741 190.908 119.444 190.824 118.965L189.258 111.478C189.049 110.519 188.945 110.009 188.945 109.949C188.945 109.514 189.498 109.297 190.605 109.297C192.108 109.297 192.996 109.439 193.267 109.724C193.539 110.009 193.925 110.661 194.426 111.68C196.264 115.322 198.112 117.144 199.97 117.144C200.659 117.144 201.218 116.964 201.646 116.604C202.074 116.244 202.288 115.795 202.288 115.255C202.288 114.311 201.813 113.19 200.863 111.894C199.913 110.597 198.749 109.155 197.371 107.566C194.071 103.759 191.738 100.72 190.37 98.4489C189.002 96.1781 188.318 93.8587 188.318 91.4904C188.318 88.8224 189.133 86.694 190.761 85.1052C192.39 83.5163 194.384 82.722 196.744 82.722C198.373 82.722 200.346 83.2466 202.664 84.2958L202.664 84.2958Z" fill="#DEE3DB"/>
<path id="path4865" d="M227.037 111.859H219.207L218.862 113.927C218.862 113.972 218.841 114.04 218.799 114.13C218.632 114.564 218.549 114.954 218.549 115.299C218.549 115.838 219.04 116.295 220.021 116.67C220.543 116.865 220.867 117.067 220.992 117.277C221.117 117.487 221.18 117.832 221.18 118.311C221.18 118.926 221.133 119.297 221.039 119.424C220.945 119.552 220.72 119.615 220.365 119.615H212.096C211.637 119.615 211.407 119.271 211.407 118.581C211.407 117.757 211.773 117.09 212.504 116.58C213.193 116.116 213.589 115.621 213.694 115.096L219.488 88.633C219.593 88.2283 219.645 87.8761 219.645 87.5763C219.645 87.1117 219.196 86.6995 218.298 86.3397C217.881 86.1599 217.672 85.7627 217.672 85.1481C217.672 84.3238 217.734 83.8142 217.86 83.6193C217.985 83.4245 218.319 83.327 218.862 83.327H230.827C231.558 83.327 232.07 83.5744 232.362 84.0689C232.654 84.5636 232.947 85.6428 233.239 87.3066C233.364 87.9511 233.489 88.5881 233.615 89.2176L238.752 113.926C239.002 115.125 239.618 116.039 240.6 116.669C240.871 116.834 241.049 116.965 241.132 117.062C241.216 117.16 241.257 117.456 241.257 117.951C241.257 118.715 241.184 119.183 241.038 119.356C240.892 119.528 240.579 119.614 240.099 119.614H226.16C225.742 119.614 225.534 119.33 225.534 118.76C225.534 118.041 225.586 117.591 225.69 117.411C225.795 117.231 226.097 117.021 226.599 116.781C227.329 116.452 227.695 116.032 227.695 115.522C227.695 114.998 227.476 113.776 227.037 111.858L227.037 111.859ZM223.279 91.8045L219.802 109.274H226.693L223.279 91.8045Z" fill="#DEE3DB"/>
<path id="path4867" d="M256.987 117.075H258.772C259.691 117.075 260.37 116.813 260.809 116.288C261.247 115.763 261.821 114.549 262.531 112.646C262.782 111.911 263.085 111.465 263.44 111.308C263.795 111.151 264.4 111.072 265.256 111.072C266.196 111.072 266.802 111.128 267.073 111.241C267.344 111.353 267.48 111.559 267.48 111.859C267.48 112.069 267.428 112.406 267.324 112.871L266.227 118.244C266.102 118.799 265.94 119.166 265.742 119.346C265.543 119.526 265.141 119.616 264.536 119.616H243.926C243.049 119.616 242.61 119.226 242.61 118.447C242.61 117.847 242.668 117.461 242.783 117.289C242.897 117.116 243.143 116.985 243.519 116.895C244.709 116.625 245.304 115.838 245.304 114.534V87.8245C245.304 87.27 244.928 86.8728 244.176 86.6329C243.529 86.4381 243.132 86.2208 242.986 85.9809C242.84 85.7411 242.767 85.3439 242.767 84.7893C242.767 84.1298 242.83 83.7214 242.955 83.564C243.08 83.4066 243.414 83.328 243.957 83.3279H258.397C258.94 83.328 259.31 83.4216 259.509 83.6089C259.707 83.7963 259.806 84.3022 259.806 85.1266C259.806 85.6213 259.738 85.9547 259.603 86.1271C259.467 86.2995 259.117 86.4531 258.553 86.588C257.509 86.8428 256.987 87.3375 256.987 88.0719L256.987 117.075Z" fill="#DEE3DB"/>
<path id="path4869" d="M283.163 86.0884V98.9262H285.293C285.878 98.9262 286.306 98.8363 286.577 98.6564C286.848 98.4765 287.057 98.0868 287.203 97.4873C287.454 96.4231 287.658 95.786 287.814 95.5762C287.971 95.3663 288.216 95.2614 288.55 95.2614C290.2 95.2614 291.134 95.3102 291.354 95.4075C291.573 95.505 291.683 95.8835 291.683 96.5429V104.03C291.683 104.495 291.578 104.798 291.369 104.94C291.161 105.083 290.513 105.154 289.427 105.154C288.717 105.154 288.242 105.06 288.002 104.873C287.762 104.686 287.527 104.157 287.298 103.288C287.068 102.494 286.843 102.006 286.624 101.826C286.405 101.647 286.066 101.557 285.606 101.557H283.163V117.047H284.823C285.846 117.047 286.551 116.841 286.937 116.429C287.324 116.017 287.945 114.829 288.801 112.865C289.156 112.041 289.522 111.501 289.897 111.247C290.273 110.992 290.931 110.865 291.871 110.865C293.165 110.865 293.813 111.164 293.813 111.764C293.813 111.944 293.771 112.206 293.687 112.551L292.529 117.654C292.32 118.584 292.147 119.142 292.012 119.329C291.876 119.517 291.453 119.61 290.743 119.61H269.851C269.329 119.61 268.995 119.524 268.849 119.352C268.703 119.179 268.63 118.681 268.63 117.857C268.63 117.332 269.006 116.95 269.758 116.71C270.906 116.365 271.48 115.893 271.48 115.294V87.2575C271.459 86.9727 270.99 86.6879 270.071 86.4031C269.444 86.2083 269.074 86.0209 268.959 85.841C268.844 85.6612 268.787 85.2265 268.787 84.537C268.787 83.9525 268.849 83.604 268.975 83.4915C269.1 83.3791 269.465 83.3229 270.071 83.3229H290.054C290.555 83.3229 290.92 83.3829 291.15 83.5028C291.38 83.6227 291.557 83.9075 291.682 84.3571L293.28 90.1578C293.363 90.4576 293.405 90.6599 293.405 90.7648C293.405 91.1696 292.904 91.3719 291.902 91.3719C290.774 91.3719 290.022 91.2782 289.647 91.0908C289.271 90.9035 288.905 90.4351 288.55 89.6856C287.903 88.3367 287.344 87.3998 286.874 86.8752C286.405 86.3507 285.877 86.0884 285.293 86.0883L283.163 86.0884Z" fill="#DEE3DB"/>
</g>
</g>
<path id="rect4340" d="M308.029 78.514H174.714C170.871 78.514 167.756 80.8831 167.756 83.8054V119.585C167.756 122.508 170.871 124.877 174.714 124.877H308.029C311.871 124.877 314.986 122.508 314.986 119.585V83.8054C314.986 80.8831 311.871 78.514 308.029 78.514Z" stroke="#008000" stroke-width="0.94089"/>
</g>
</g>
</g>
<g id="Sold 1" clip-path="url(#clip0)">
<g id="layer1_2">
<g id="g5048">
<g id="rect3094_2" filter="url(#filter4_f)">
<path d="M1263.7 214.818H1178.3C1173.53 214.818 1169.66 216.754 1169.66 219.141V234.828C1169.66 237.215 1173.53 239.151 1178.3 239.151H1263.7C1268.47 239.151 1272.34 237.215 1272.34 234.828V219.141C1272.34 216.754 1268.47 214.818 1263.7 214.818Z" fill="#333333"/>
</g>
<g id="path3918_2" filter="url(#filter5_f)">
<path d="M1241.82 230.554C1241.82 228.507 1240.15 226.544 1237.19 225.097C1234.24 223.65 1230.22 222.837 1226.04 222.837C1221.85 222.837 1217.84 223.65 1214.88 225.097C1211.92 226.544 1210.26 228.507 1210.26 230.554" fill="#005500"/>
</g>
<path id="path3890_2" d="M1257.55 190.296C1257.84 190.301 1258.13 190.317 1258.42 190.342C1249.2 190.542 1238.29 200.844 1232.9 215.047C1230.75 220.72 1229.77 226.241 1229.85 231.083H1223.06C1223.28 225.54 1225.24 218.97 1228.98 212.343C1236.43 199.154 1248.45 190.135 1257.55 190.296L1257.55 190.296Z" fill="#0B280B"/>
<g id="g3069_2">
<path id="rect2995_2" d="M1225.82 50.9993H1225.05C1220.39 50.9993 1216.61 54.2972 1216.61 58.3654V224.358C1216.61 228.426 1220.39 231.724 1225.05 231.724H1225.82C1230.47 231.724 1234.25 228.426 1234.25 224.358V58.3654C1234.25 54.2972 1230.47 50.9993 1225.82 50.9993Z" fill="url(#paint2_linear)"/>
<g id="g3033_2" opacity="0.1">
<path id="path3025_2" opacity="0.1" d="M1232.79 134.162C1232.79 159.521 1231.68 180.079 1230.31 180.079C1228.94 180.079 1227.84 159.521 1227.84 134.162C1227.84 108.802 1228.94 88.2437 1230.31 88.2437C1231.68 88.2437 1232.79 108.802 1232.79 134.162Z" fill="#D45500"/>
<path id="path3029_2" opacity="0.1" d="M1232.24 134.16C1232.24 155.737 1231.38 173.228 1230.31 173.228C1229.25 173.228 1228.38 155.737 1228.38 134.16C1228.38 112.584 1229.25 95.0924 1230.31 95.0924C1231.38 95.0924 1232.24 112.584 1232.24 134.16Z" fill="#FF6600"/>
<path id="path3027_2" opacity="0.1" d="M1231.89 134.16C1231.89 151.746 1231.18 166.002 1230.31 166.002C1229.45 166.002 1228.74 151.746 1228.74 134.16C1228.74 116.574 1229.45 102.318 1230.31 102.318C1231.18 102.318 1231.89 116.574 1231.89 134.16Z" fill="#552200"/>
<path id="path3031_2" opacity="0.1" d="M1231.51 134.16C1231.51 147.483 1230.97 158.283 1230.31 158.283C1229.66 158.283 1229.12 147.483 1229.12 134.16C1229.12 120.838 1229.66 110.038 1230.31 110.038C1230.97 110.038 1231.51 120.838 1231.51 134.16Z" fill="#FFB380"/>
</g>
<g id="g3039_2" opacity="0.1">
<path id="path3041_2" opacity="0.1" d="M1222.43 182.536C1222.43 207.895 1221.32 228.454 1219.96 228.454C1218.59 228.454 1217.48 207.895 1217.48 182.536C1217.48 157.176 1218.59 136.618 1219.96 136.618C1221.32 136.618 1222.43 157.176 1222.43 182.536Z" fill="#D45500"/>
<path id="path3043_2" opacity="0.1" d="M1221.88 182.534C1221.88 204.111 1221.02 221.602 1219.96 221.602C1218.89 221.602 1218.03 204.111 1218.03 182.534C1218.03 160.958 1218.89 143.466 1219.96 143.466C1221.02 143.466 1221.88 160.958 1221.88 182.534Z" fill="#FF6600"/>
<path id="path3045_2" opacity="0.1" d="M1221.53 182.534C1221.53 200.12 1220.83 214.376 1219.96 214.376C1219.09 214.376 1218.39 200.12 1218.39 182.534C1218.39 164.948 1219.09 150.692 1219.96 150.692C1220.83 150.692 1221.53 164.948 1221.53 182.534Z" fill="#552200"/>
<path id="path3047_2" opacity="0.1" d="M1221.15 182.534C1221.15 195.857 1220.61 206.657 1219.96 206.657C1219.3 206.657 1218.77 195.857 1218.77 182.534C1218.77 169.212 1219.3 158.412 1219.96 158.412C1220.61 158.412 1221.15 169.212 1221.15 182.534Z" fill="#FFB380"/>
</g>
<g id="g3049_2" opacity="0.1">
<path id="path3051_2" opacity="0.1" d="M1226.04 98.3728C1226.04 123.733 1224.93 144.291 1223.56 144.291C1222.19 144.291 1221.08 123.733 1221.08 98.3728C1221.08 73.013 1222.19 52.4549 1223.56 52.4549C1224.93 52.4549 1226.04 73.013 1226.04 98.3728Z" fill="#D45500"/>
<path id="path3053_2" opacity="0.1" d="M1225.49 98.3716C1225.49 119.948 1224.63 137.44 1223.56 137.44C1222.5 137.44 1221.63 119.948 1221.63 98.3716C1221.63 76.7949 1222.5 59.3037 1223.56 59.3037C1224.63 59.3037 1225.49 76.7949 1225.49 98.3716Z" fill="#FF6600"/>
<path id="path3055_2" opacity="0.1" d="M1225.13 98.3714C1225.13 115.957 1224.43 130.213 1223.56 130.213C1222.69 130.213 1221.99 115.957 1221.99 98.3714C1221.99 80.7855 1222.69 66.5294 1223.56 66.5294C1224.43 66.5294 1225.13 80.7855 1225.13 98.3714Z" fill="#552200"/>
<path id="path3057_2" opacity="0.1" d="M1224.75 98.3716C1224.75 111.694 1224.22 122.494 1223.56 122.494C1222.9 122.494 1222.37 111.694 1222.37 98.3716C1222.37 85.049 1222.9 74.249 1223.56 74.249C1224.22 74.249 1224.75 85.049 1224.75 98.3716Z" fill="#FFB380"/>
</g>
<g id="g3059_2" opacity="0.1">
<path id="path3061_2" opacity="0.1" d="M1232.79 198.464C1232.79 212.203 1231.68 223.34 1230.31 223.34C1228.94 223.34 1227.84 212.203 1227.84 198.464C1227.84 184.725 1228.94 173.588 1230.31 173.588C1231.68 173.588 1232.79 184.725 1232.79 198.464Z" fill="#D45500"/>
<path id="path3063_2" opacity="0.1" d="M1232.24 198.463C1232.24 210.153 1231.38 219.629 1230.31 219.629C1229.25 219.629 1228.38 210.153 1228.38 198.463C1228.38 186.774 1229.25 177.298 1230.31 177.298C1231.38 177.298 1232.24 186.774 1232.24 198.463Z" fill="#FF6600"/>
<path id="path3065_2" opacity="0.1" d="M1231.89 198.463C1231.89 207.99 1231.18 215.714 1230.31 215.714C1229.45 215.714 1228.74 207.99 1228.74 198.463C1228.74 188.936 1229.45 181.213 1230.31 181.213C1231.18 181.213 1231.89 188.936 1231.89 198.463Z" fill="#552200"/>
<path id="path3067_2" opacity="0.1" d="M1231.51 198.463C1231.51 205.681 1230.97 211.532 1230.31 211.532C1229.66 211.532 1229.12 205.681 1229.12 198.463C1229.12 191.246 1229.66 185.395 1230.31 185.395C1230.97 185.395 1231.51 191.246 1231.51 198.463Z" fill="#FFB380"/>
</g>
</g>
<path id="rect2985_2" d="M1304.27 67.2515H1153.16C1149.19 67.2515 1145.96 69.6763 1145.96 72.6674V123.744C1145.96 126.735 1149.19 129.16 1153.16 129.16H1304.27C1308.24 129.16 1311.47 126.735 1311.47 123.744V72.6674C1311.47 69.6763 1308.24 67.2515 1304.27 67.2515Z" fill="url(#paint3_linear)"/>
<path id="path3876_2" d="M1186.14 188.439C1185.84 188.444 1185.55 188.461 1185.27 188.485C1194.48 188.685 1205.39 198.987 1210.79 213.19C1212.94 218.864 1213.92 224.384 1213.83 229.226H1220.63C1220.4 223.683 1218.44 217.113 1214.7 210.486C1207.25 197.297 1195.23 188.279 1186.14 188.439L1186.14 188.439Z" fill="#0B280B"/>
<path id="path3884_2" d="M1186.41 203.28C1186.12 203.284 1185.83 203.294 1185.54 203.31C1194.76 203.443 1205.67 210.258 1211.06 219.654C1213.22 223.407 1214.19 227.059 1214.11 230.262H1220.9C1220.68 226.595 1218.72 222.248 1214.98 217.864C1207.53 209.139 1195.51 203.174 1186.41 203.28L1186.41 203.28Z" fill="#005500"/>
<path id="path3886_2" d="M1196.27 205.137C1195.97 205.141 1195.68 205.151 1195.4 205.167C1204.61 205.299 1215.52 212.114 1220.92 221.51C1223.07 225.264 1224.05 228.915 1223.96 232.118H1230.76C1230.53 228.452 1228.57 224.105 1224.83 219.721C1217.38 211 1205.36 205.037 1196.27 205.142L1196.27 205.137Z" fill="#002B00"/>
<path id="path3888_2" d="M1265.49 189.681C1265.79 189.687 1266.08 189.703 1266.36 189.727C1257.14 189.927 1246.24 200.229 1240.84 214.432C1238.69 220.106 1237.71 225.626 1237.8 230.468H1231C1231.23 224.925 1233.19 218.355 1236.93 211.728C1244.38 198.539 1256.4 189.521 1265.49 189.682L1265.49 189.681Z" fill="#005500"/>
<path id="path3892_2" d="M1263.3 209.046C1263.6 209.049 1263.89 209.058 1264.17 209.073C1254.95 209.188 1244.05 215.118 1238.65 223.294C1236.5 226.56 1235.52 229.737 1235.61 232.525H1228.81C1229.04 229.334 1231 225.552 1234.74 221.737C1242.19 214.144 1254.21 208.953 1263.3 209.046L1263.3 209.046Z" fill="#008000"/>
<path id="path3894_2" d="M1190.51 208.432C1190.22 208.434 1189.93 208.443 1189.65 208.458C1198.86 208.573 1209.77 214.503 1215.16 222.679C1217.32 225.945 1218.3 229.123 1218.21 231.91H1225C1224.78 228.719 1222.82 224.937 1219.08 221.122C1211.63 213.53 1199.61 208.338 1190.52 208.431L1190.51 208.432Z" fill="#165016"/>
<path id="path3896_2" d="M1206.65 225.325C1206.55 225.326 1206.45 225.329 1206.36 225.332C1209.43 225.363 1213.07 226.974 1214.87 229.195C1215.59 230.082 1215.92 230.945 1215.89 231.703H1218.16C1218.08 230.836 1217.43 229.808 1216.18 228.772C1213.69 226.71 1209.68 225.299 1206.65 225.325L1206.65 225.325Z" fill="#1F241C"/>
<path id="path3898_2" d="M1232.11 225.534C1232.21 225.535 1232.3 225.538 1232.4 225.541C1229.32 225.572 1225.68 227.183 1223.88 229.404C1223.16 230.291 1222.84 231.155 1222.87 231.912H1220.6C1220.67 231.045 1221.33 230.018 1222.58 228.981C1225.06 226.919 1229.07 225.509 1232.11 225.534L1232.11 225.534Z" fill="#008000"/>
<g id="path3900_2" filter="url(#filter6_f)">
<path d="M1241.82 230.257C1241.82 232.303 1240.15 234.266 1237.19 235.713C1234.24 237.16 1230.22 237.973 1226.04 237.973C1221.85 237.973 1217.84 237.16 1214.88 235.713C1211.92 234.266 1210.26 232.303 1210.26 230.257" fill="#005500"/>
</g>
<g id="g5036">
<g id="text3924" filter="url(#filter7_f)">
<path id="path5019" d="M1168.56 91.2841C1168.56 89.6158 1169.14 88.1504 1170.3 86.8881C1171.47 85.6258 1173.02 84.6584 1174.95 83.986C1176.88 83.3136 1178.93 82.9774 1181.11 82.9774C1182.41 82.9774 1183.81 83.0837 1185.29 83.2962C1186.77 83.5087 1188.06 83.8877 1189.15 84.4332C1190.25 84.9788 1190.8 85.7146 1190.8 86.6407C1190.8 87.4527 1190.45 88.1441 1189.77 88.715C1189.09 89.286 1188.22 89.5714 1187.17 89.5714C1186.71 89.5714 1186.31 89.5302 1185.98 89.4477L1184.52 89.0576C1183.27 88.7214 1182.07 88.5533 1180.94 88.5533C1179.96 88.5533 1179.05 88.7404 1178.24 89.1147C1177.42 89.489 1177.01 90.0155 1177.01 90.6942C1177.01 91.7599 1178.08 92.5021 1180.22 92.9207L1182.35 93.3489C1185.69 94.0277 1188.33 94.9459 1190.29 96.1036C1192.25 97.2613 1193.22 98.9407 1193.22 101.142C1193.22 103.832 1192.24 105.95 1190.28 107.498C1189.11 108.456 1187.64 109.157 1185.87 109.601C1184.1 110.045 1182.25 110.267 1180.32 110.267C1176.8 110.267 1173.77 109.81 1171.25 108.897C1170.37 108.579 1169.65 108.148 1169.12 107.603C1168.58 107.057 1168.31 106.435 1168.31 105.738C1168.31 105.053 1168.65 104.434 1169.33 103.882C1170.01 103.33 1170.81 103.054 1171.72 103.054C1172.5 103.054 1173.17 103.146 1173.74 103.33L1176.49 104.101C1177.82 104.494 1179.12 104.691 1180.37 104.691C1181.5 104.691 1182.51 104.451 1183.4 103.973C1184.28 103.494 1184.72 102.835 1184.72 101.998C1184.72 101.148 1184.29 100.514 1183.43 100.095C1182.73 99.7589 1182.03 99.5068 1181.36 99.3386C1180.69 99.1705 1179.53 98.9025 1177.89 98.5346C1175.78 98.0716 1174.08 97.5863 1172.8 97.0788C1171.51 96.5713 1170.49 95.8529 1169.72 94.9236C1168.94 93.9943 1168.56 92.7811 1168.56 91.2841L1168.56 91.2841Z" fill="#280B0B" stroke="#2B0000" stroke-width="0.23673"/>
<path id="path5021" d="M1197.08 96.4318C1197.08 94.4273 1197.55 92.5338 1198.49 90.7512C1199.43 88.9687 1200.84 87.4432 1202.73 86.1744C1205.87 84.043 1209.67 82.9772 1214.13 82.9772C1216.69 82.9772 1219.03 83.315 1221.13 83.9905C1223.24 84.6661 1225.04 85.6161 1226.55 86.8403C1228.06 88.0646 1229.22 89.495 1230.02 91.1317C1230.82 92.7683 1231.22 94.5351 1231.22 96.4316C1231.22 98.5376 1230.75 100.523 1229.82 102.388C1228.89 104.253 1227.46 105.839 1225.53 107.146C1224.01 108.186 1222.28 108.966 1220.33 109.486C1218.39 110.006 1216.34 110.267 1214.18 110.267C1211.8 110.267 1209.54 109.943 1207.39 109.296C1205.24 108.649 1203.37 107.697 1201.8 106.441C1198.65 103.942 1197.08 100.605 1197.08 96.4317L1197.08 96.4318ZM1205.53 96.4699C1205.53 97.8781 1205.83 99.2309 1206.45 100.528C1207.06 101.825 1208.01 102.882 1209.31 103.697C1210.61 104.512 1212.23 104.919 1214.18 104.919C1216.16 104.919 1217.8 104.52 1219.08 103.72C1220.37 102.921 1221.31 101.882 1221.9 100.604C1222.49 99.3261 1222.78 97.948 1222.78 96.4698C1222.78 95.0552 1222.47 93.7231 1221.85 92.4734C1221.22 91.2238 1220.25 90.2199 1218.94 89.4619C1217.63 88.7038 1216.01 88.3248 1214.08 88.3248C1212.97 88.3248 1211.88 88.512 1210.82 88.8862C1209.76 89.2605 1208.86 89.7616 1208.12 90.3896C1206.39 91.8613 1205.53 93.888 1205.53 96.4698L1205.53 96.4699Z" fill="#280B0B" stroke="#2B0000" stroke-width="0.23673"/>
<path id="path5023" d="M1244.01 104.263H1252.19C1253.34 104.263 1254.28 104.498 1255.02 104.967C1255.76 105.437 1256.13 106.096 1256.13 106.946C1256.13 107.758 1255.75 108.404 1255 108.883C1254.25 109.362 1253.32 109.601 1252.19 109.601H1241.05C1239.5 109.601 1238.28 109.273 1237.4 108.616C1236.52 107.96 1236.08 107.041 1236.08 105.862V86.5268C1236.08 85.5943 1236.43 84.8093 1237.14 84.1717C1237.85 83.5342 1238.82 83.2155 1240.06 83.2155C1241.29 83.2155 1242.26 83.5342 1242.96 84.1717C1243.66 84.8093 1244.01 85.5943 1244.01 86.5268L1244.01 104.263Z" fill="#280B0B" stroke="#2B0000" stroke-width="0.23673"/>
<path id="path5025" d="M1259.05 105.9V87.2317C1259.05 86.1026 1259.47 85.2161 1260.32 84.5723C1261.17 83.9284 1262.35 83.6065 1263.87 83.6065H1271.33C1275.82 83.6065 1279.49 84.3994 1282.36 85.9853C1284.46 87.1398 1286.05 88.6749 1287.12 90.5905C1288.2 92.5063 1288.74 94.517 1288.74 96.6231C1288.74 99.097 1288.09 101.32 1286.79 103.293C1285.49 105.266 1283.61 106.811 1281.15 107.927C1278.69 109.043 1275.79 109.602 1272.47 109.602L1263.77 109.526C1262.29 109.526 1261.14 109.204 1260.3 108.56C1259.47 107.916 1259.05 107.029 1259.05 105.9L1259.05 105.9ZM1266.98 104.416H1270.91C1273.87 104.416 1276.08 103.833 1277.54 102.665C1279.37 101.219 1280.29 99.205 1280.29 96.6232C1280.29 93.8701 1279.23 91.8053 1277.13 90.4287C1275.55 89.3631 1273.18 88.8302 1270.03 88.8302H1266.98L1266.98 104.416Z" fill="#280B0B" stroke="#2B0000" stroke-width="0.23673"/>
</g>
<g id="text3920">
<path id="path5028" d="M1168.55 91.2843C1168.55 89.616 1169.13 88.1507 1170.29 86.8884C1171.46 85.626 1173.01 84.6586 1174.94 83.9862C1176.87 83.3139 1178.92 82.9777 1181.1 82.9776C1182.4 82.9777 1183.8 83.0839 1185.28 83.2964C1186.76 83.5089 1188.05 83.8879 1189.14 84.4335C1190.24 84.979 1190.79 85.7149 1190.79 86.641C1190.79 87.453 1190.45 88.1444 1189.76 88.7153C1189.08 89.2862 1188.21 89.5717 1187.16 89.5717C1186.7 89.5717 1186.3 89.5304 1185.97 89.448L1184.51 89.0578C1183.26 88.7217 1182.06 88.5536 1180.93 88.5535C1179.95 88.5536 1179.04 88.7407 1178.23 89.1149C1177.41 89.4892 1177 90.0157 1177 90.6945C1177 91.7602 1178.07 92.5024 1180.21 92.9211L1182.34 93.3493C1185.68 94.028 1188.32 94.9463 1190.28 96.1039C1192.24 97.2616 1193.22 98.941 1193.22 101.142C1193.22 103.832 1192.23 105.951 1190.27 107.498C1189.1 108.456 1187.63 109.157 1185.86 109.601C1184.09 110.045 1182.24 110.267 1180.31 110.267C1176.79 110.267 1173.77 109.811 1171.24 108.897C1170.36 108.58 1169.65 108.149 1169.11 107.603C1168.57 107.057 1168.3 106.436 1168.3 105.738C1168.3 105.053 1168.64 104.434 1169.32 103.883C1170 103.331 1170.8 103.055 1171.71 103.055C1172.49 103.055 1173.16 103.147 1173.74 103.331L1176.48 104.101C1177.81 104.495 1179.11 104.691 1180.36 104.691C1181.49 104.691 1182.5 104.452 1183.39 103.973C1184.27 103.494 1184.72 102.836 1184.72 101.999C1184.72 101.149 1184.29 100.514 1183.42 100.096C1182.72 99.7594 1182.02 99.5073 1181.35 99.3392C1180.68 99.1711 1179.52 98.9031 1177.88 98.5351C1175.77 98.0721 1174.07 97.5868 1172.79 97.0793C1171.5 96.5718 1170.48 95.8534 1169.71 94.9241C1168.93 93.9948 1168.55 92.7815 1168.55 91.2845L1168.55 91.2843Z" fill="#E2E3DB" stroke="#2B0000" stroke-width="0.23673"/>
<path id="path5030" d="M1197.07 96.4323C1197.07 94.4278 1197.54 92.5342 1198.48 90.7516C1199.42 88.9692 1200.84 87.4435 1202.73 86.1748C1205.86 84.0434 1209.66 82.9777 1214.12 82.9777C1216.69 82.9777 1219.02 83.3155 1221.13 83.9911C1223.23 84.6667 1225.04 85.6166 1226.55 86.8409C1228.06 88.0652 1229.21 89.4956 1230.01 91.1323C1230.81 92.7689 1231.21 94.5356 1231.21 96.4323C1231.21 98.5384 1230.75 100.524 1229.82 102.389C1228.88 104.254 1227.45 105.84 1225.52 107.147C1224 108.187 1222.27 108.967 1220.33 109.487C1218.39 110.007 1216.33 110.268 1214.18 110.268C1211.8 110.268 1209.53 109.944 1207.38 109.297C1205.23 108.65 1203.37 107.698 1201.79 106.442C1198.65 103.943 1197.07 100.606 1197.07 96.4324V96.4323ZM1205.52 96.4703C1205.52 97.8786 1205.83 99.2314 1206.44 100.529C1207.05 101.826 1208.01 102.882 1209.31 103.697C1210.6 104.512 1212.23 104.92 1214.18 104.92C1216.16 104.92 1217.79 104.52 1219.08 103.721C1220.36 102.922 1221.3 101.883 1221.89 100.605C1222.48 99.3265 1222.78 97.9484 1222.78 96.4703C1222.78 95.0557 1222.46 93.7236 1221.84 92.4739C1221.22 91.2243 1220.25 90.2204 1218.94 89.4624C1217.63 88.7044 1216.01 88.3253 1214.07 88.3253C1212.96 88.3253 1211.88 88.5125 1210.82 88.8867C1209.76 89.261 1208.86 89.7621 1208.12 90.3901C1206.39 91.8618 1205.52 93.8886 1205.52 96.4704L1205.52 96.4703Z" fill="#E2E3DB" stroke="#2B0000" stroke-width="0.23673"/>
<path id="path5032" d="M1244 104.27H1252.19C1253.34 104.27 1254.28 104.504 1255.02 104.974C1255.75 105.443 1256.12 106.103 1256.12 106.953C1256.12 107.765 1255.75 108.41 1255 108.889C1254.25 109.368 1253.31 109.608 1252.19 109.608H1241.04C1239.49 109.608 1238.28 109.279 1237.39 108.623C1236.51 107.966 1236.07 107.048 1236.07 105.868V86.5335C1236.07 85.6011 1236.43 84.8161 1237.14 84.1785C1237.84 83.541 1238.82 83.2223 1240.06 83.2222C1241.29 83.2223 1242.25 83.541 1242.95 84.1785C1243.65 84.8161 1244 85.6011 1244 86.5335L1244 104.27Z" fill="#E2E3DB" stroke="#2B0000" stroke-width="0.23673"/>
<path id="path5034" d="M1259.04 105.904V87.235C1259.04 86.1058 1259.47 85.2194 1260.31 84.5754C1261.16 83.9316 1262.34 83.6096 1263.86 83.6096H1271.33C1275.81 83.6096 1279.49 84.4026 1282.36 85.9884C1284.46 87.143 1286.04 88.6781 1287.12 90.5938C1288.19 92.5095 1288.73 94.5205 1288.73 96.6264C1288.73 99.1004 1288.08 101.324 1286.78 103.297C1285.48 105.269 1283.6 106.814 1281.14 107.931C1278.68 109.047 1275.79 109.605 1272.46 109.605L1263.76 109.529C1262.29 109.529 1261.13 109.207 1260.3 108.563C1259.46 107.92 1259.04 107.033 1259.04 105.904L1259.04 105.904ZM1266.97 104.42H1270.91C1273.86 104.42 1276.07 103.836 1277.54 102.669C1279.37 101.226 1280.28 99.2119 1280.28 96.6308C1280.28 93.8771 1279.23 91.8124 1277.12 90.4356C1275.54 89.3699 1273.18 88.8378 1270.02 88.8378H1266.97V104.42Z" fill="#E2E3DB" stroke="#2B0000" stroke-width="0.23673"/>
</g>
</g>
<g id="g3940_2">
<path id="path3932_2" d="M1220.28 70.217C1220.28 70.8234 1219.63 71.315 1218.82 71.315C1218.02 71.315 1217.36 70.8234 1217.36 70.217C1217.36 69.6106 1218.02 69.119 1218.82 69.119C1219.63 69.119 1220.28 69.6106 1220.28 70.217Z" fill="#B3B3B3"/>
<path id="rect3936_2" d="M1218.83 69.3044H1218.81C1218.76 69.3044 1218.72 69.3326 1218.72 69.3673V71.0255C1218.72 71.0602 1218.76 71.0883 1218.81 71.0883H1218.83C1218.88 71.0883 1218.91 71.0602 1218.91 71.0255V69.3673C1218.91 69.3326 1218.88 69.3044 1218.83 69.3044Z" fill="white"/>
<path id="rect3938_2" d="M1220 70.2035V70.1875C1220 70.1528 1219.97 70.1247 1219.92 70.1247H1217.72C1217.67 70.1247 1217.63 70.1528 1217.63 70.1875V70.2035C1217.63 70.2381 1217.67 70.2663 1217.72 70.2663H1219.92C1219.97 70.2663 1220 70.2381 1220 70.2035Z" fill="white"/>
</g>
<g id="g3945_2">
<path id="path3947_2" d="M1233.95 70.047C1233.95 70.6534 1233.29 71.145 1232.49 71.145C1231.68 71.145 1231.03 70.6534 1231.03 70.047C1231.03 69.4407 1231.68 68.9491 1232.49 68.9491C1233.29 68.9491 1233.95 69.4406 1233.95 70.047Z" fill="#B3B3B3"/>
<path id="rect3949_2" d="M1232.49 69.1344H1232.47C1232.43 69.1344 1232.39 69.1625 1232.39 69.1972V70.8555C1232.39 70.8902 1232.43 70.9183 1232.47 70.9183H1232.49C1232.54 70.9183 1232.58 70.8902 1232.58 70.8555V69.1972C1232.58 69.1625 1232.54 69.1344 1232.49 69.1344Z" fill="white"/>
<path id="rect3951_2" d="M1233.67 70.0335V70.0175C1233.67 69.9828 1233.63 69.9547 1233.59 69.9547H1231.38C1231.33 69.9547 1231.3 69.9828 1231.3 70.0175V70.0335C1231.3 70.0682 1231.33 70.0963 1231.38 70.0963H1233.59C1233.63 70.0963 1233.67 70.0682 1233.67 70.0335Z" fill="white"/>
</g>
<g id="g3953_2">
<path id="path3955_2" d="M1220.09 124.867C1220.09 125.474 1219.44 125.965 1218.63 125.965C1217.83 125.965 1217.17 125.474 1217.17 124.867C1217.17 124.261 1217.83 123.769 1218.63 123.769C1219.44 123.769 1220.09 124.261 1220.09 124.867Z" fill="#B3B3B3"/>
<path id="rect3957_2" d="M1218.64 123.955H1218.62C1218.57 123.955 1218.54 123.983 1218.54 124.018V125.676C1218.54 125.711 1218.57 125.739 1218.62 125.739H1218.64C1218.69 125.739 1218.72 125.711 1218.72 125.676V124.018C1218.72 123.983 1218.69 123.955 1218.64 123.955Z" fill="white"/>
<path id="rect3959_2" d="M1219.81 124.854V124.838C1219.81 124.803 1219.78 124.775 1219.73 124.775H1217.53C1217.48 124.775 1217.44 124.803 1217.44 124.838V124.854C1217.44 124.889 1217.48 124.917 1217.53 124.917H1219.73C1219.78 124.917 1219.81 124.889 1219.81 124.854Z" fill="white"/>
</g>
<g id="g3961_2">
<path id="path3963_2" d="M1233.64 124.64C1233.64 125.246 1232.99 125.738 1232.19 125.738C1231.38 125.738 1230.73 125.246 1230.73 124.64C1230.73 124.034 1231.38 123.542 1232.19 123.542C1232.99 123.542 1233.64 124.033 1233.64 124.64Z" fill="#B3B3B3"/>
<path id="rect3965_2" d="M1232.19 123.727H1232.17C1232.13 123.727 1232.09 123.755 1232.09 123.79V125.448C1232.09 125.483 1232.13 125.511 1232.17 125.511H1232.19C1232.24 125.511 1232.28 125.483 1232.28 125.448V123.79C1232.28 123.755 1232.24 123.727 1232.19 123.727Z" fill="white"/>
<path id="rect3967_2" d="M1233.37 124.626V124.61C1233.37 124.576 1233.33 124.548 1233.28 124.548H1231.08C1231.03 124.548 1231 124.576 1231 124.61V124.626C1231 124.661 1231.03 124.689 1231.08 124.689H1233.28C1233.33 124.689 1233.37 124.661 1233.37 124.626Z" fill="white"/>
</g>
</g>
</g>
</g>
<path id="Garage" d="M440.641 172.766C433.484 177.547 426.266 179.938 418.984 179.938C411.172 179.938 405.109 177.047 400.797 171.266C396.484 165.453 394.328 157.391 394.328 147.078C394.328 136.234 396.391 128.141 400.516 122.797C404.641 117.453 410.844 114.781 419.125 114.781C429.938 114.781 437.141 119.953 440.734 130.297L432.719 132.922C430.219 125.703 425.719 122.094 419.219 122.094C413.938 122.094 410.031 124.062 407.5 128C405 131.938 403.75 138.297 403.75 147.078C403.75 164.141 409.078 172.672 419.734 172.672C421.859 172.672 424.062 172.344 426.344 171.688C428.625 171.031 430.484 170.203 431.922 169.203V153.453H418.188V145.953H440.641V172.766ZM498.297 173.797C499.109 173.797 500.031 173.688 501.062 173.469V178.719C498.938 179.219 496.766 179.469 494.547 179.469C491.422 179.469 489.141 178.656 487.703 177.031C486.297 175.375 485.5 172.797 485.312 169.297H485.031C483 173.078 480.594 175.797 477.812 177.453C475.062 179.109 471.656 179.938 467.594 179.938C462.656 179.938 458.938 178.594 456.438 175.906C453.938 173.219 452.688 169.531 452.688 164.844C452.688 153.938 459.781 148.406 473.969 148.25L485.031 148.062V145.297C485.031 141.203 484.203 138.266 482.547 136.484C480.891 134.672 478.25 133.766 474.625 133.766C470.938 133.766 468.281 134.422 466.656 135.734C465.031 137.047 464.062 139.078 463.75 141.828L454.938 141.031C456.375 131.906 462.984 127.344 474.766 127.344C481.016 127.344 485.703 128.812 488.828 131.75C491.984 134.656 493.562 138.875 493.562 144.406V166.25C493.562 168.75 493.891 170.641 494.547 171.922C495.203 173.172 496.453 173.797 498.297 173.797ZM469.75 173.516C472.75 173.516 475.406 172.797 477.719 171.359C480.031 169.922 481.828 168 483.109 165.594C484.391 163.188 485.031 160.703 485.031 158.141V153.969L476.125 154.156C472.438 154.219 469.625 154.625 467.688 155.375C465.75 156.125 464.234 157.281 463.141 158.844C462.078 160.375 461.547 162.422 461.547 164.984C461.547 167.547 462.234 169.609 463.609 171.172C465.016 172.734 467.062 173.516 469.75 173.516ZM553.328 135.969C549.828 135.375 546.516 135.078 543.391 135.078C538.359 135.078 534.297 136.969 531.203 140.75C528.109 144.531 526.562 149.344 526.562 155.188V179H518.125V146.141C518.125 143.766 517.906 140.969 517.469 137.75C517.062 134.531 516.469 131.375 515.688 128.281H523.703C524.953 132.594 525.703 136.5 525.953 140H526.188C527.75 136.5 529.281 133.938 530.781 132.312C532.281 130.656 534.062 129.422 536.125 128.609C538.188 127.766 540.703 127.344 543.672 127.344C546.922 127.344 550.141 127.609 553.328 128.141V135.969ZM613.609 173.797C614.422 173.797 615.344 173.688 616.375 173.469V178.719C614.25 179.219 612.078 179.469 609.859 179.469C606.734 179.469 604.453 178.656 603.016 177.031C601.609 175.375 600.812 172.797 600.625 169.297H600.344C598.312 173.078 595.906 175.797 593.125 177.453C590.375 179.109 586.969 179.938 582.906 179.938C577.969 179.938 574.25 178.594 571.75 175.906C569.25 173.219 568 169.531 568 164.844C568 153.938 575.094 148.406 589.281 148.25L600.344 148.062V145.297C600.344 141.203 599.516 138.266 597.859 136.484C596.203 134.672 593.562 133.766 589.938 133.766C586.25 133.766 583.594 134.422 581.969 135.734C580.344 137.047 579.375 139.078 579.062 141.828L570.25 141.031C571.688 131.906 578.297 127.344 590.078 127.344C596.328 127.344 601.016 128.812 604.141 131.75C607.297 134.656 608.875 138.875 608.875 144.406V166.25C608.875 168.75 609.203 170.641 609.859 171.922C610.516 173.172 611.766 173.797 613.609 173.797ZM585.062 173.516C588.062 173.516 590.719 172.797 593.031 171.359C595.344 169.922 597.141 168 598.422 165.594C599.703 163.188 600.344 160.703 600.344 158.141V153.969L591.438 154.156C587.75 154.219 584.938 154.625 583 155.375C581.062 156.125 579.547 157.281 578.453 158.844C577.391 160.375 576.859 162.422 576.859 164.984C576.859 167.547 577.547 169.609 578.922 171.172C580.328 172.734 582.375 173.516 585.062 173.516ZM648.484 198.875C643.234 198.875 639.016 197.797 635.828 195.641C632.641 193.484 630.609 190.391 629.734 186.359L638.359 185.188C638.891 187.531 640.031 189.328 641.781 190.578C643.562 191.859 645.891 192.5 648.766 192.5C656.516 192.5 660.391 187.578 660.391 177.734V168.641H660.297C658.766 171.859 656.641 174.297 653.922 175.953C651.203 177.609 647.969 178.438 644.219 178.438C638.031 178.438 633.5 176.422 630.625 172.391C627.781 168.328 626.359 161.953 626.359 153.266C626.359 144.422 627.891 137.922 630.953 133.766C634.016 129.578 638.734 127.484 645.109 127.484C648.641 127.484 651.703 128.312 654.297 129.969C656.922 131.594 658.938 133.922 660.344 136.953H660.484C660.484 136.016 660.547 134.438 660.672 132.219C660.797 129.969 660.922 128.656 661.047 128.281H669.062C668.875 129.969 668.781 133.469 668.781 138.781V177.5C668.781 184.594 667.125 189.922 663.812 193.484C660.5 197.078 655.391 198.875 648.484 198.875ZM660.391 153.172C660.391 147.141 659.219 142.406 656.875 138.969C654.531 135.5 651.312 133.766 647.219 133.766C642.938 133.766 639.844 135.266 637.938 138.266C636.031 141.234 635.078 146.203 635.078 153.172C635.078 157.891 635.469 161.625 636.25 164.375C637.062 167.094 638.312 169.078 640 170.328C641.688 171.578 644.047 172.203 647.078 172.203C649.734 172.203 652.062 171.469 654.062 170C656.094 168.5 657.656 166.328 658.75 163.484C659.844 160.609 660.391 157.172 660.391 153.172ZM692.406 155.422C692.406 161.109 693.656 165.562 696.156 168.781C698.688 172 702.141 173.609 706.516 173.609C709.734 173.609 712.547 172.922 714.953 171.547C717.391 170.141 719.016 168.234 719.828 165.828L727.234 167.938C725.859 171.812 723.328 174.781 719.641 176.844C715.984 178.906 711.609 179.938 706.516 179.938C699.141 179.938 693.469 177.641 689.5 173.047C685.531 168.453 683.547 161.875 683.547 153.312C683.547 144.969 685.484 138.562 689.359 134.094C693.266 129.594 698.891 127.344 706.234 127.344C713.578 127.344 719.141 129.578 722.922 134.047C726.703 138.516 728.594 145.266 728.594 154.297V155.422H692.406ZM706.328 133.578C702.141 133.578 698.828 134.953 696.391 137.703C693.953 140.422 692.656 144.172 692.5 148.953H719.875C719 138.703 714.484 133.578 706.328 133.578Z" fill="black"/>
<path id="Sale" d="M825.062 165.656C825.062 171.406 822.953 175.891 818.734 179.109C814.547 182.328 808.562 183.938 800.781 183.938C786.5 183.938 778.203 178.344 775.891 167.156L784.562 165.422C785.438 169.453 787.25 172.391 790 174.234C792.75 176.047 796.422 176.953 801.016 176.953C805.984 176.953 809.75 175.984 812.312 174.047C814.906 172.109 816.203 169.359 816.203 165.797C816.203 163.609 815.688 161.828 814.656 160.453C813.656 159.078 812.328 157.953 810.672 157.078C809.016 156.203 807.141 155.5 805.047 154.969C802.984 154.406 800.891 153.859 798.766 153.328C793.734 152.016 790.141 150.844 787.984 149.812C785.859 148.781 784.156 147.609 782.875 146.297C781.594 144.953 780.625 143.422 779.969 141.703C779.312 139.984 778.984 137.969 778.984 135.656C778.984 130.25 780.875 126.094 784.656 123.188C788.469 120.25 793.922 118.781 801.016 118.781C807.641 118.781 812.703 119.938 816.203 122.25C819.703 124.562 822.141 128.469 823.516 133.969L814.703 135.516C813.953 132.016 812.453 129.484 810.203 127.922C807.953 126.328 804.875 125.531 800.969 125.531C792.125 125.531 787.703 128.859 787.703 135.516C787.703 137.391 788.109 138.922 788.922 140.109C789.766 141.266 790.891 142.234 792.297 143.016C793.734 143.766 795.391 144.391 797.266 144.891C799.172 145.391 801.203 145.922 803.359 146.484C807.703 147.578 810.828 148.5 812.734 149.25C814.641 149.969 816.328 150.797 817.797 151.734C819.297 152.672 820.578 153.781 821.641 155.062C822.703 156.344 823.531 157.844 824.125 159.562C824.75 161.281 825.062 163.312 825.062 165.656ZM881.453 177.797C882.266 177.797 883.188 177.688 884.219 177.469V182.719C882.094 183.219 879.922 183.469 877.703 183.469C874.578 183.469 872.297 182.656 870.859 181.031C869.453 179.375 868.656 176.797 868.469 173.297H868.188C866.156 177.078 863.75 179.797 860.969 181.453C858.219 183.109 854.812 183.938 850.75 183.938C845.812 183.938 842.094 182.594 839.594 179.906C837.094 177.219 835.844 173.531 835.844 168.844C835.844 157.938 842.938 152.406 857.125 152.25L868.188 152.062V149.297C868.188 145.203 867.359 142.266 865.703 140.484C864.047 138.672 861.406 137.766 857.781 137.766C854.094 137.766 851.438 138.422 849.812 139.734C848.188 141.047 847.219 143.078 846.906 145.828L838.094 145.031C839.531 135.906 846.141 131.344 857.922 131.344C864.172 131.344 868.859 132.812 871.984 135.75C875.141 138.656 876.719 142.875 876.719 148.406V170.25C876.719 172.75 877.047 174.641 877.703 175.922C878.359 177.172 879.609 177.797 881.453 177.797ZM852.906 177.516C855.906 177.516 858.562 176.797 860.875 175.359C863.188 173.922 864.984 172 866.266 169.594C867.547 167.188 868.188 164.703 868.188 162.141V157.969L859.281 158.156C855.594 158.219 852.781 158.625 850.844 159.375C848.906 160.125 847.391 161.281 846.297 162.844C845.234 164.375 844.703 166.422 844.703 168.984C844.703 171.547 845.391 173.609 846.766 175.172C848.172 176.734 850.219 177.516 852.906 177.516ZM922 176.344H939.812V183H893.781V176.344H913.562V120.094H900.016V113.438H922V176.344ZM960.25 159.422C960.25 165.109 961.5 169.562 964 172.781C966.531 176 969.984 177.609 974.359 177.609C977.578 177.609 980.391 176.922 982.797 175.547C985.234 174.141 986.859 172.234 987.672 169.828L995.078 171.938C993.703 175.812 991.172 178.781 987.484 180.844C983.828 182.906 979.453 183.938 974.359 183.938C966.984 183.938 961.312 181.641 957.344 177.047C953.375 172.453 951.391 165.875 951.391 157.312C951.391 148.969 953.328 142.562 957.203 138.094C961.109 133.594 966.734 131.344 974.078 131.344C981.422 131.344 986.984 133.578 990.766 138.047C994.547 142.516 996.438 149.266 996.438 158.297V159.422H960.25ZM974.172 137.578C969.984 137.578 966.672 138.953 964.234 141.703C961.797 144.422 960.5 148.172 960.344 152.953H987.719C986.844 142.703 982.328 137.578 974.172 137.578Z" fill="black"/>
</g>
<defs>
<filter id="filter0_f" x="159.708" y="205.403" width="146.592" height="64.6548" filterUnits="userSpaceOnUse" color-interpolation-filters="sRGB">
<feFlood flood-opacity="0" result="BackgroundImageFix"/>
<feBlend mode="normal" in="SourceGraphic" in2="BackgroundImageFix" result="shape"/>
<feGaussianBlur stdDeviation="9.70937" result="effect1_foregroundBlur"/>
</filter>
<filter id="filter1_f" x="220.879" y="232.478" width="34.8123" height="9.88131" filterUnits="userSpaceOnUse" color-interpolation-filters="sRGB">
<feFlood flood-opacity="0" result="BackgroundImageFix"/>
<feBlend mode="normal" in="SourceGraphic" in2="BackgroundImageFix" result="shape"/>
<feGaussianBlur stdDeviation="0.4234" result="effect1_foregroundBlur"/>
</filter>
<filter id="filter2_f" x="220.879" y="240.35" width="34.8123" height="9.88133" filterUnits="userSpaceOnUse" color-interpolation-filters="sRGB">
<feFlood flood-opacity="0" result="BackgroundImageFix"/>
<feBlend mode="normal" in="SourceGraphic" in2="BackgroundImageFix" result="shape"/>
<feGaussianBlur stdDeviation="0.4234" result="effect1_foregroundBlur"/>
</filter>
<filter id="filter3_f" x="187.047" y="81.4285" width="108.036" height="39.864" filterUnits="userSpaceOnUse" color-interpolation-filters="sRGB">
<feFlood flood-opacity="0" result="BackgroundImageFix"/>
<feBlend mode="normal" in="SourceGraphic" in2="BackgroundImageFix" result="shape"/>
<feGaussianBlur stdDeviation="0.635473" result="effect1_foregroundBlur"/>
</filter>
<filter id="filter4_f" x="1150.25" y="195.4" width="141.509" height="63.1697" filterUnits="userSpaceOnUse" color-interpolation-filters="sRGB">
<feFlood flood-opacity="0" result="BackgroundImageFix"/>
<feBlend mode="normal" in="SourceGraphic" in2="BackgroundImageFix" result="shape"/>
<feGaussianBlur stdDeviation="9.70937" result="effect1_foregroundBlur"/>
</filter>
<filter id="filter5_f" x="1209.41" y="221.99" width="33.251" height="9.41056" filterUnits="userSpaceOnUse" color-interpolation-filters="sRGB">
<feFlood flood-opacity="0" result="BackgroundImageFix"/>
<feBlend mode="normal" in="SourceGraphic" in2="BackgroundImageFix" result="shape"/>
<feGaussianBlur stdDeviation="0.4234" result="effect1_foregroundBlur"/>
</filter>
<filter id="filter6_f" x="1209.41" y="229.41" width="33.251" height="9.41056" filterUnits="userSpaceOnUse" color-interpolation-filters="sRGB">
<feFlood flood-opacity="0" result="BackgroundImageFix"/>
<feBlend mode="normal" in="SourceGraphic" in2="BackgroundImageFix" result="shape"/>
<feGaussianBlur stdDeviation="0.4234" result="effect1_foregroundBlur"/>
</filter>
<filter id="filter7_f" x="1167.28" y="81.9525" width="122.481" height="29.3389" filterUnits="userSpaceOnUse" color-interpolation-filters="sRGB">
<feFlood flood-opacity="0" result="BackgroundImageFix"/>
<feBlend mode="normal" in="SourceGraphic" in2="BackgroundImageFix" result="shape"/>
<feGaussianBlur stdDeviation="0.453146" result="effect1_foregroundBlur"/>
</filter>
<linearGradient id="paint0_linear" x1="228.827" y1="140.597" x2="245.372" y2="140.059" gradientUnits="userSpaceOnUse">
<stop stop-color="#2B1100"/>
<stop offset="1" stop-color="#D45500"/>
</linearGradient>
<linearGradient id="paint1_linear" x1="238.684" y1="69.9124" x2="238.684" y2="134.508" gradientUnits="userSpaceOnUse">
<stop stop-color="#0B280B"/>
<stop offset="1" stop-color="#217821"/>
</linearGradient>
<linearGradient id="paint2_linear" x1="1217.03" y1="135.439" x2="1232.79" y2="134.921" gradientUnits="userSpaceOnUse">
<stop stop-color="#2B1100"/>
<stop offset="1" stop-color="#D45500"/>
</linearGradient>
<linearGradient id="paint3_linear" x1="1231.22" y1="135.954" x2="1230.09" y2="61.9531" gradientUnits="userSpaceOnUse">
<stop stop-color="#2B0000"/>
<stop offset="1" stop-color="#FF2A2A"/>
</linearGradient>
<clipPath id="clip0">
<rect width="202" height="213" fill="white" transform="translate(1120 51)"/>
</clipPath>
</defs>
</svg>
